<?xml version="1.0" encoding="utf-8"?><svg xmlns="http://www.w3.org/2000/svg" xmlns:xlink="http://www.w3.org/1999/xlink"><symbol viewBox="0 0 17.73 48.62" id="ico-arrow-right" xmlns="http://www.w3.org/2000/svg"><rect y="12.248" rx=".5"/><rect x="29.459" rx=".5" transform="rotate(45 29.459 0)"/><rect x="29" y="24.88" rx=".5" transform="rotate(-45 29 24.88)"/></symbol><symbol viewBox="0 0 18 12.46" id="ico-arrow-white" xmlns="http://www.w3.org/2000/svg"><path d="M1 7.23h16.615M12.077 1L19 7.23l-6.923 6.231" stroke="#fff" stroke-width="2" stroke-linecap="round" stroke-linejoin="round"/></symbol><symbol viewBox="0 0 11 10.3" id="ico-close" xmlns="http://www.w3.org/2000/svg"><path d="M1 1l11 10.302M12 1L1 11.302" stroke="#fff" stroke-linecap="round"/></symbol><symbol viewBox="0 0 17 17" id="ico-instagram" xmlns="http://www.w3.org/2000/svg"><path d="M12.11 0H4.89A4.89 4.89 0 000 4.89v7.22C0 14.81 2.19 17 4.89 17h7.22c2.7 0 4.89-2.19 4.89-4.89V4.89A4.89 4.89 0 0012.11 0z"/><path d="M11.077 2.428H5.921a3.493 3.493 0 00-3.493 3.494v5.156a3.493 3.493 0 003.493 3.493h5.156a3.493 3.493 0 003.494-3.493V5.922a3.493 3.493 0 00-3.494-3.494z" stroke="#28282C" stroke-miterlimit="10"/><path d="M8.705 11.41a2.705 2.705 0 100-5.41 2.705 2.705 0 000 5.41z" stroke="#28282C" stroke-miterlimit="10"/><path d="M11.678 5.506a.628.628 0 100-1.256.628.628 0 000 1.256z"/></symbol><symbol viewBox="0 0 14.88 26" id="ico-mouse" xmlns="http://www.w3.org/2000/svg"><g clip-path="url(#eclip0)" stroke="#fff"><path d="M6.037 7.942C6.037 3.839 9.376.5 13.48.5s7.442 3.339 7.442 7.442v11.116c0 4.103-3.339 7.442-7.442 7.442s-7.442-3.339-7.442-7.442V7.942zM13.48 25.88a6.83 6.83 0 006.822-6.822V7.942A6.83 6.83 0 0013.48 1.12a6.83 6.83 0 00-6.822 6.822v11.116a6.83 6.83 0 006.822 6.822z"/><path d="M13.17 6.181a.31.31 0 11.62 0V9.91a.31.31 0 01-.62 0V6.181z"/></g><defs><clipPath id="eclip0"><path d="M0 0h27v27H0z"/></clipPath></defs></symbol></svg>