<svg version="1.1" xmlns="http://www.w3.org/2000/svg" xmlns:xlink="http://www.w3.org/1999/xlink">
  <symbol id="img-address" viewBox="0 0 16 16">
		<g id="img-address">
			<path d="M6.00165 0C2.71168 0 0.0351562 2.67761 0.0351562 5.96887C0.0351562 10.8726 5.40776 15.6607 5.63656 15.8622C5.74085 15.9541 5.87122 16.0001 6.00165 16.0001C6.13207 16.0001 6.26244 15.9541 6.36679 15.8622C6.59548 15.6608 11.9681 10.8727 11.9681 5.96887C11.9681 2.67761 9.29161 0 6.00165 0ZM6.00165 4.29323C6.91553 4.29323 7.65902 5.04491 7.65902 5.96887C7.65902 6.89283 6.91553 7.64451 6.00165 7.64451C5.08776 7.64451 4.34427 6.89283 4.34427 5.96887C4.34427 5.04491 5.08776 4.29323 6.00165 4.29323Z" fill="#DD7B51"/>
		</g>
  </symbol>
  <view id="img-address-view" viewBox="0 0 16 16"/>
  <use xlink:href="#img-address" width="16" height="16" x="0" y="0"/>

  <symbol id="img-check" viewBox="0 0 12 10">
		<g id="img-check">
			<path fill="#DD7B51" d="M11.8243 0.769445C11.59 0.535116 11.2101 0.535116 10.9757 0.769445L3.78737 7.95789L1.02428 5.1948C0.789973 4.96047 0.410098 4.96049 0.175746 5.1948C-0.058582 5.4291 -0.058582 5.80898 0.175746 6.0433L3.36311 9.23062C3.59734 9.46492 3.9775 9.46476 4.21164 9.23062L11.8243 1.61798C12.0586 1.38367 12.0586 1.00377 11.8243 0.769445Z"/>
		</g>
  </symbol>
  <view id="img-check-view" viewBox="0 52 12 10"/>
  <use xlink:href="#img-check" width="12" height="10" x="0" y="52"/>

  <symbol id="img-close" viewBox="0 0 20 20">
		<g id="img-close">
			<path fill="white" d="M9.04516 9.93304L0.192656 18.7855C-0.0532813 19.0315 -0.0532813 19.4299 0.192656 19.6758C0.315469 19.799 0.476719 19.8602 0.637656 19.8602C0.798906 19.8602 0.959844 19.799 1.08266 19.6758L10.0017 10.7568L18.9208 19.6758C19.0439 19.799 19.2048 19.8602 19.3658 19.8602C19.5267 19.8602 19.688 19.799 19.8108 19.6758C20.0567 19.4299 20.0567 19.0315 19.8108 18.7855L10.9586 9.93304L19.8167 1.07429C20.0627 0.82835 20.0627 0.429912 19.8167 0.183975C19.5708 -0.0616504 19.1723 -0.0616504 18.9267 0.183975L10.002 9.10929L1.07641 0.184287C0.830469 -0.0613379 0.432344 -0.0613379 0.186406 0.184287C-0.0595312 0.430225 -0.0595312 0.828662 0.186406 1.0746L9.04516 9.93304Z"/>
		</g>
  </symbol>
  <view id="img-close-view" viewBox="0 62 20 20"/>
  <use xlink:href="#img-close" width="20" height="20" x="0" y="62"/>

  <symbol id="img-down" viewBox="0 0 7 5">
	 	<g id="img-down">
			<path fill="white" d="M0.806 0H5.051V1.141H0.806z" transform="rotate(45 .806 0)"/><path fill="white" d="M2.439 3.241H7.023V4.382H2.439z" transform="rotate(-45 2.439 3.241)"/>
		</g>
  </symbol>
  <view id="img-down-view" viewBox="0 82 7 5"/>
  <use xlink:href="#img-down" width="7" height="5" x="0" y="82"/>

  <symbol id="img-drawing" viewBox="0 0 19 19">
		<g id="img-drawing">
			<path fill="#DD7B51" stroke="#25272B" stroke-width=".1" d="M17.7339 1.26621L17.734 1.26634C18.5181 2.04636 18.95 3.08616 18.95 4.19426C18.95 5.30234 18.5181 6.3422 17.7339 7.12632L6.86017 17.996L6.85949 17.9967C6.78275 18.0765 6.67965 18.1253 6.57186 18.139L6.57185 18.1389L6.56998 18.1392C6.56856 18.1395 6.56715 18.1397 6.56582 18.14C6.56331 18.1405 6.56107 18.1409 6.55963 18.1412L6.55467 18.1422L6.5546 18.1422L0.609892 18.9454L0.609888 18.9453L0.608364 18.9456C0.588825 18.9488 0.568667 18.949 0.543717 18.949C0.415826 18.949 0.286701 18.8939 0.194482 18.8017C0.0877992 18.695 0.0328047 18.5405 0.0547896 18.3866L0.0548412 18.3863L0.860436 12.4192C0.86044 12.4192 0.860444 12.4191 0.860448 12.4191C0.875216 12.3122 0.923069 12.213 1.00009 12.136C1.00009 12.136 1.00009 12.136 1.0001 12.136L11.8739 1.26626L11.8739 1.26621C13.4899 -0.353775 16.1179 -0.353775 17.7339 1.26621ZM12.0844 2.53149L12.049 2.49613L12.0137 2.53149L2.09125 12.4539L2.0559 12.4893L2.09125 12.5246L3.91704 14.3504L3.9524 14.3858L3.98775 14.3504L13.9102 4.42799L13.9455 4.39263L13.9102 4.35728L12.0844 2.53149ZM1.78142 13.6158L1.71004 13.5444L1.69652 13.6444L1.1338 17.8061L1.12501 17.8711L1.19004 17.8624L5.35272 17.3006L5.45279 17.2871L5.38139 17.2157L1.78142 13.6158ZM6.47963 16.9089L6.51498 16.9443L6.55034 16.9089L16.4728 6.98652L16.5081 6.95117L16.4728 6.91581L14.6875 5.1305L14.6521 5.09515L14.6167 5.1305L4.69432 15.0529L4.65896 15.0883L4.69432 15.1236L6.47963 16.9089ZM17.1631 6.2052L17.202 6.24411L17.2371 6.20166C17.7019 5.63813 17.9569 4.93868 17.9569 4.19426C17.9569 3.35129 17.632 2.55712 17.0354 1.9646C16.4391 1.37243 15.6492 1.04325 14.8059 1.04325C14.0656 1.04325 13.3621 1.29831 12.7985 1.76314L12.7561 1.79815L12.795 1.83706L17.1631 6.2052Z"/>
		</g>
  </symbol>
  <view id="img-drawing-view" viewBox="0 90 19 19"/>
  <use xlink:href="#img-drawing" width="19" height="19" x="0" y="90"/>

  <symbol id="img-employee" viewBox="0 0 91 117">
		<g id="img-employee">
      <mask id="path-1-inside-1" fill="white">
      <path d="M54.7979 61.2787V53.2531C54.7979 46.2377 48.791 43.6876 48.5354 43.5824C48.528 43.5793 48.5204 43.5763 48.5128 43.5734L34.327 38.0797V34.7526C36.5801 33.0004 38.1424 30.4028 38.5346 27.4394C39.658 27.3603 40.7004 26.9407 41.5517 26.2087C42.6634 25.2527 43.3012 23.8613 43.3012 22.3919C43.3012 21.1725 42.8613 20.0081 42.0772 19.1008V14.7055C42.0771 6.59691 35.4803 0 27.3718 0C19.2632 0 12.6665 6.59691 12.6665 14.7055V19.216C11.874 20.1141 11.4431 21.2196 11.4431 22.3918C11.4431 23.8616 12.0806 25.2529 13.1927 26.209C14.0433 26.9407 15.0851 27.3598 16.2082 27.4391C16.6035 30.4581 18.2113 33.1524 20.6564 34.9282V38.0797L6.48595 43.5733C6.47851 43.5761 6.47108 43.5791 6.46364 43.5821C6.20783 43.6873 0.201172 46.2374 0.201172 53.2528V77.9712C0.201172 79.641 1.55966 80.9995 3.2295 80.9995H14.5342C15.1895 80.9995 15.7207 80.4683 15.7207 79.813C15.7207 79.1577 15.1895 78.6265 14.5342 78.6265H11.9813V55.2605C11.9813 54.6052 11.45 54.074 10.7948 54.074C10.1395 54.074 9.60825 54.6052 9.60825 55.2605V78.6268H3.22965C2.86848 78.6268 2.57453 78.3329 2.57453 77.9717V53.2529C2.57453 47.9105 7.08222 45.8987 7.35907 45.7803L15.8758 42.4786L19.6176 49.9778C19.9756 50.6949 20.7026 51.1279 21.4774 51.1279C22.237 51.1279 22.6401 50.7721 23.1762 50.3913L24.1319 51.83L20.5849 72.7869C20.5828 72.7988 20.5811 72.8106 20.5793 72.8226C20.4936 73.4434 20.6855 74.0815 21.0925 74.5295L24.8171 78.627H12.9272C12.2719 78.627 11.7407 79.1582 11.7407 79.8135C11.7407 80.4688 12.2719 81 12.9272 81H51.7702C53.44 81 54.7985 79.6413 54.7985 77.9717L54.7979 61.2787ZM52.4251 77.9715C52.4251 78.3327 52.1312 78.6266 51.77 78.6266H45.3917V55.2605C45.3917 54.6052 44.8605 54.074 44.2052 54.074C43.5499 54.074 43.0187 54.6052 43.0187 55.2605V78.6268H30.175L33.8995 74.5293C34.3064 74.0816 34.4983 73.4439 34.4128 72.8228C34.4112 72.8108 34.4093 72.7988 34.4072 72.7867L30.8598 51.83L31.8155 50.3913C32.3439 50.7666 32.751 51.1279 33.5143 51.1279C34.2908 51.1279 35.0168 50.6933 35.374 49.978V49.9778L39.1155 42.479L47.6389 45.7799C47.9472 45.9121 52.4248 47.9286 52.4248 53.2531V61.2787L52.4251 77.9715ZM36.8929 41.6183L33.4047 48.6093C33.318 48.5478 31.4694 47.2344 29.2096 45.6297C30.1902 44.4193 29.043 45.8352 33.5183 40.3114L36.8929 41.6183ZM29.8794 49.0165L28.9748 50.3782H26.016L25.1114 49.0165L27.4955 47.3233L29.8794 49.0165ZM23.0292 38.4625V36.242C24.4708 36.823 26.0114 37.0925 27.5159 37.0925C29.0715 37.0925 30.5971 36.7609 31.9538 36.1676V38.4722L27.4955 43.9753L23.0292 38.4625ZM40.928 22.3919C40.9279 23.1692 40.5912 23.9047 40.0043 24.4095C39.6162 24.7433 39.1475 24.9567 38.6341 25.0402V19.7441C39.9978 19.9656 40.928 21.0967 40.928 22.3919ZM16.1101 25.0402C14.7309 24.8164 13.8161 23.676 13.8161 22.3918C13.8161 21.1233 14.8677 20.0908 16.1101 19.8037V25.0402ZM16.1738 17.3859C15.7959 17.4292 15.3627 17.5316 15.0398 17.6414V14.7055C15.0398 7.90541 20.5719 2.37321 27.3719 2.37321C34.172 2.37321 39.704 7.90541 39.704 14.7055V17.5599C39.3591 17.455 39.0014 17.3857 38.6342 17.3531C38.6342 16.2082 38.6442 16.4291 34.8988 12.4023C34.2099 11.6623 33.0706 11.5072 32.2034 12.0737C28.0696 14.7741 23.0269 16.1307 18.3741 15.7966C17.3536 15.7202 16.424 16.3924 16.1738 17.3859ZM18.4833 25.9744V18.5718V18.1818C23.6051 18.4818 28.975 16.9602 33.3131 14.182C35.0309 16.0263 35.9611 16.9937 36.261 17.3617C36.261 18.2926 36.261 24.9088 36.261 25.9743C36.261 30.7911 32.3335 34.7191 27.5161 34.7191C22.1065 34.7193 18.4833 30.5228 18.4833 25.9744ZM21.5864 48.6093L18.0982 41.6183L21.4668 40.3136L25.7764 45.6332C23.5849 47.1895 21.7853 48.4681 21.5864 48.6093ZM22.9478 73.0427L26.3822 52.7511H28.6083L32.0427 73.0427L27.4953 78.0456L22.9478 73.0427Z"/>
      </mask>
      <path d="M54.7979 61.2787V53.2531C54.7979 46.2377 48.791 43.6876 48.5354 43.5824C48.528 43.5793 48.5204 43.5763 48.5128 43.5734L34.327 38.0797V34.7526C36.5801 33.0004 38.1424 30.4028 38.5346 27.4394C39.658 27.3603 40.7004 26.9407 41.5517 26.2087C42.6634 25.2527 43.3012 23.8613 43.3012 22.3919C43.3012 21.1725 42.8613 20.0081 42.0772 19.1008V14.7055C42.0771 6.59691 35.4803 0 27.3718 0C19.2632 0 12.6665 6.59691 12.6665 14.7055V19.216C11.874 20.1141 11.4431 21.2196 11.4431 22.3918C11.4431 23.8616 12.0806 25.2529 13.1927 26.209C14.0433 26.9407 15.0851 27.3598 16.2082 27.4391C16.6035 30.4581 18.2113 33.1524 20.6564 34.9282V38.0797L6.48595 43.5733C6.47851 43.5761 6.47108 43.5791 6.46364 43.5821C6.20783 43.6873 0.201172 46.2374 0.201172 53.2528V77.9712C0.201172 79.641 1.55966 80.9995 3.2295 80.9995H14.5342C15.1895 80.9995 15.7207 80.4683 15.7207 79.813C15.7207 79.1577 15.1895 78.6265 14.5342 78.6265H11.9813V55.2605C11.9813 54.6052 11.45 54.074 10.7948 54.074C10.1395 54.074 9.60825 54.6052 9.60825 55.2605V78.6268H3.22965C2.86848 78.6268 2.57453 78.3329 2.57453 77.9717V53.2529C2.57453 47.9105 7.08222 45.8987 7.35907 45.7803L15.8758 42.4786L19.6176 49.9778C19.9756 50.6949 20.7026 51.1279 21.4774 51.1279C22.237 51.1279 22.6401 50.7721 23.1762 50.3913L24.1319 51.83L20.5849 72.7869C20.5828 72.7988 20.5811 72.8106 20.5793 72.8226C20.4936 73.4434 20.6855 74.0815 21.0925 74.5295L24.8171 78.627H12.9272C12.2719 78.627 11.7407 79.1582 11.7407 79.8135C11.7407 80.4688 12.2719 81 12.9272 81H51.7702C53.44 81 54.7985 79.6413 54.7985 77.9717L54.7979 61.2787ZM52.4251 77.9715C52.4251 78.3327 52.1312 78.6266 51.77 78.6266H45.3917V55.2605C45.3917 54.6052 44.8605 54.074 44.2052 54.074C43.5499 54.074 43.0187 54.6052 43.0187 55.2605V78.6268H30.175L33.8995 74.5293C34.3064 74.0816 34.4983 73.4439 34.4128 72.8228C34.4112 72.8108 34.4093 72.7988 34.4072 72.7867L30.8598 51.83L31.8155 50.3913C32.3439 50.7666 32.751 51.1279 33.5143 51.1279C34.2908 51.1279 35.0168 50.6933 35.374 49.978V49.9778L39.1155 42.479L47.6389 45.7799C47.9472 45.9121 52.4248 47.9286 52.4248 53.2531V61.2787L52.4251 77.9715ZM36.8929 41.6183L33.4047 48.6093C33.318 48.5478 31.4694 47.2344 29.2096 45.6297C30.1902 44.4193 29.043 45.8352 33.5183 40.3114L36.8929 41.6183ZM29.8794 49.0165L28.9748 50.3782H26.016L25.1114 49.0165L27.4955 47.3233L29.8794 49.0165ZM23.0292 38.4625V36.242C24.4708 36.823 26.0114 37.0925 27.5159 37.0925C29.0715 37.0925 30.5971 36.7609 31.9538 36.1676V38.4722L27.4955 43.9753L23.0292 38.4625ZM40.928 22.3919C40.9279 23.1692 40.5912 23.9047 40.0043 24.4095C39.6162 24.7433 39.1475 24.9567 38.6341 25.0402V19.7441C39.9978 19.9656 40.928 21.0967 40.928 22.3919ZM16.1101 25.0402C14.7309 24.8164 13.8161 23.676 13.8161 22.3918C13.8161 21.1233 14.8677 20.0908 16.1101 19.8037V25.0402ZM16.1738 17.3859C15.7959 17.4292 15.3627 17.5316 15.0398 17.6414V14.7055C15.0398 7.90541 20.5719 2.37321 27.3719 2.37321C34.172 2.37321 39.704 7.90541 39.704 14.7055V17.5599C39.3591 17.455 39.0014 17.3857 38.6342 17.3531C38.6342 16.2082 38.6442 16.4291 34.8988 12.4023C34.2099 11.6623 33.0706 11.5072 32.2034 12.0737C28.0696 14.7741 23.0269 16.1307 18.3741 15.7966C17.3536 15.7202 16.424 16.3924 16.1738 17.3859ZM18.4833 25.9744V18.5718V18.1818C23.6051 18.4818 28.975 16.9602 33.3131 14.182C35.0309 16.0263 35.9611 16.9937 36.261 17.3617C36.261 18.2926 36.261 24.9088 36.261 25.9743C36.261 30.7911 32.3335 34.7191 27.5161 34.7191C22.1065 34.7193 18.4833 30.5228 18.4833 25.9744ZM21.5864 48.6093L18.0982 41.6183L21.4668 40.3136L25.7764 45.6332C23.5849 47.1895 21.7853 48.4681 21.5864 48.6093ZM22.9478 73.0427L26.3822 52.7511H28.6083L32.0427 73.0427L27.4953 78.0456L22.9478 73.0427Z" fill="#DD7B51" stroke="#25272B" stroke-width="0.8" mask="url(#path-1-inside-1)"/>
		</g>
  </symbol>
  <view id="img-employee-view" viewBox="0 110 91 117"/>
  <use xlink:href="#img-employee" width="91" height="117" x="0" y="110"/>

  <symbol id="img-left" viewBox="0 0 5 7">
		<g id="img-left">
			<path fill="#DD7B51" d="M5 1.32H9.245000000000001V2.4610000000000003H5z" transform="rotate(135 5 1.32)"/><path xmlns="http://www.w3.org/2000/svg" fill="#DD7B51" d="M1.759 2.952H6.343V4.093H1.759z" transform="rotate(45 1.759 2.952)"/>
		</g>
  </symbol>
  <view id="img-left-view" viewBox="0 230 5 7"/>
  <use xlink:href="#img-left" width="5" height="7" x="0" y="230"/>

  <symbol id="img-left-2" viewBox="0 0 5 7">
		<g id="img-left-2">
			<path fill="#DD7B51" d="M5 1.32H9.245000000000001V2.4610000000000003H5z" transform="rotate(135 5 1.32)"/><path xmlns="http://www.w3.org/2000/svg" fill="#DD7B51" d="M1.759 2.952H6.343V4.093H1.759z" transform="rotate(45 1.759 2.952)"/>
		</g>
  </symbol>
  <view id="img-left-2-view" viewBox="0 230 5 7"/>
  <use xlink:href="#img-left-2" width="5" height="7" x="0" y="230"/>

  <symbol id="img-logo" viewBox="0 0 189 40">
		<g id="img-logo">
			<g clip-path="url(#clip0)"><path fill="white" fill-rule="evenodd" d="M52.3427 13.1725H61.0823C60.9661 14.161 60.6579 15.0394 60.1466 15.7972C59.6359 16.555 58.9479 17.1474 58.0885 17.5737C57.2239 18.0053 56.2124 18.2215 55.0443 18.2313C54.5535 18.2313 54.0628 18.201 53.5726 18.1358C53.0819 18.0758 52.6117 17.9902 52.1668 17.8847C51.7218 17.774 51.3273 17.6488 50.9787 17.5085L50.1592 21.0313C50.5185 21.1967 50.9734 21.3476 51.5199 21.4932C52.0711 21.6388 52.6735 21.7587 53.3409 21.8497C54.0083 21.9452 54.6963 21.99 55.4095 21.9953C56.6182 21.9953 57.7565 21.8497 58.8283 21.5637C59.9009 21.2777 60.8817 20.8514 61.767 20.284C62.6522 19.7219 63.4159 19.0195 64.0628 18.176C64.7049 17.3378 65.2057 16.3645 65.555 15.2601C65.909 14.1511 66.0863 12.9116 66.0909 11.5462C66.0909 10.4122 65.9694 9.32818 65.717 8.28966C65.464 7.25049 65.0749 6.29236 64.5535 5.41397C64.0329 4.53558 63.3655 3.7679 62.5612 3.11553C61.7524 2.46317 60.7914 1.95116 59.6784 1.59005C58.566 1.22894 57.2963 1.04311 55.8651 1.03784C55.122 1.04311 54.4134 1.09847 53.7407 1.21378C53.0679 1.3291 52.4463 1.46946 51.8799 1.6454C51.3134 1.81607 50.8226 1.99662 50.4029 2.18245L51.3134 5.58464C51.662 5.43902 52.0519 5.30327 52.4915 5.17807C52.9364 5.05287 53.4066 4.94743 53.918 4.86704C54.4234 4.78665 54.9546 4.74118 55.5012 4.74118C56.3506 4.74645 57.1096 4.87165 57.7717 5.11744C58.4345 5.36323 59.001 5.70985 59.4712 6.14608C59.9414 6.58758 60.3106 7.09959 60.5889 7.68672C60.8618 8.27385 61.0391 8.90579 61.1148 9.58847H52.3427V13.1725ZM68.4286 1.36996V21.6639H72.9803V13.1725H73.8602C74.6797 13.1778 75.3571 13.3584 75.8831 13.7096C76.4037 14.0608 76.8341 14.5379 77.1575 15.1448C77.4862 15.7471 77.7645 16.4344 77.9869 17.2073C78.2194 17.9651 78.4571 18.7229 78.6949 19.4807C78.9326 20.2385 79.2261 20.966 79.5648 21.6639H84.5416C84.0608 20.6504 83.6364 19.6066 83.2672 18.5272C82.8933 17.4531 82.5287 16.3691 82.1747 15.2805C81.8965 14.4628 81.5631 13.73 81.1733 13.0724C80.7788 12.4147 80.288 11.8625 79.6963 11.4065C79.1046 10.9499 78.3761 10.6184 77.5015 10.4029L84.6326 1.36996H79.0189L73.4053 9.83096H72.9803V1.36996H68.4286ZM86.0312 1.36996V21.6639H90.6433V5.13326H98.3814V1.36996H86.0312ZM114.133 18.9232C113.775 19.0939 113.365 19.2448 112.899 19.37C112.434 19.4952 111.938 19.5908 111.412 19.6613C110.881 19.7318 110.345 19.7667 109.794 19.7667C108.14 19.7568 106.729 19.4254 105.566 18.7631C104.403 18.1009 103.512 17.1619 102.895 15.9428C102.278 14.7283 101.97 13.2832 101.965 11.6069C101.97 10.2718 102.162 9.08766 102.537 8.04914C102.916 7.01524 103.457 6.13751 104.155 5.42452C104.858 4.70691 105.698 4.16525 106.673 3.7936C107.654 3.42195 108.742 3.23678 109.945 3.23678C110.8 3.24205 111.574 3.32179 112.267 3.4773C112.96 3.63281 113.551 3.8338 114.042 4.07959L114.71 1.94193C114.477 1.81673 114.138 1.68626 113.698 1.54524C113.258 1.40949 112.717 1.28956 112.08 1.19401C111.438 1.09385 110.694 1.04377 109.854 1.0385C108.261 1.04377 106.815 1.29945 105.51 1.80619C104.205 2.31292 103.082 3.0358 102.136 3.97415C101.191 4.91251 100.462 6.03669 99.9514 7.33615C99.4353 8.64089 99.1777 10.0959 99.1724 11.6971C99.1823 13.3682 99.4353 14.8436 99.9361 16.1286C100.437 17.4083 101.139 18.4824 102.05 19.3503C102.955 20.2234 104.017 20.881 105.241 21.3271C106.46 21.7686 107.795 21.9946 109.247 21.9946C110.082 21.9894 110.845 21.9446 111.543 21.8543C112.241 21.7587 112.857 21.6388 113.383 21.4932C113.909 21.3476 114.329 21.1967 114.648 21.0313L114.133 18.9232ZM128.907 14.8588C128.937 14.7079 128.963 14.5326 128.978 14.3316C128.993 14.1307 128.998 13.8947 128.998 13.6239C129.004 13.0816 128.948 12.4997 128.832 11.8823C128.715 11.2649 128.523 10.658 128.25 10.0609C127.982 9.45865 127.612 8.91699 127.152 8.42475C126.687 7.93317 126.105 7.53647 125.412 7.2406C124.72 6.94934 123.89 6.79383 122.929 6.78856C121.857 6.79383 120.896 6.99415 120.046 7.39546C119.197 7.79215 118.478 8.3437 117.882 9.05142C117.285 9.76375 116.83 10.5921 116.517 11.5403C116.203 12.4833 116.046 13.5126 116.041 14.6163C116.046 15.7207 116.208 16.7243 116.532 17.6225C116.861 18.5259 117.336 19.3035 117.958 19.9512C118.581 20.6036 119.339 21.1057 120.229 21.4569C121.119 21.8134 122.13 21.9887 123.263 21.994C124.042 21.9887 124.745 21.9386 125.367 21.8431C125.989 21.7475 126.535 21.6322 127.006 21.4919C127.476 21.3462 127.866 21.2059 128.179 21.0602L127.693 19.1638C127.375 19.3041 127.021 19.4346 126.632 19.5453C126.247 19.6606 125.807 19.7509 125.317 19.8161C124.826 19.8814 124.259 19.917 123.627 19.917C122.95 19.917 122.307 19.8214 121.711 19.631C121.109 19.4399 120.583 19.1394 120.117 18.7328C119.657 18.3262 119.293 17.7991 119.025 17.1619C118.752 16.5194 118.611 15.7517 118.59 14.8588H128.907ZM118.62 12.9617C118.67 12.4951 118.787 12.0134 118.964 11.5166C119.146 11.025 119.399 10.5631 119.722 10.1367C120.051 9.7051 120.461 9.35915 120.956 9.0982C121.447 8.83198 122.033 8.69163 122.716 8.68701C123.313 8.69229 123.829 8.78717 124.259 8.973C124.688 9.15883 125.043 9.40462 125.326 9.71565C125.609 10.0221 125.832 10.368 125.993 10.7397C126.155 11.1159 126.272 11.4975 126.332 11.8836C126.398 12.2651 126.428 12.6263 126.418 12.9623H118.62V12.9617ZM131.512 27.6254H134.152V19.7061H134.213C134.511 20.1878 134.886 20.5996 135.346 20.9403C135.801 21.2817 136.317 21.5426 136.893 21.7232C137.47 21.9037 138.082 21.994 138.734 21.994C139.609 21.994 140.443 21.8332 141.242 21.507C142.041 21.1808 142.755 20.6939 143.387 20.0415C144.014 19.3944 144.514 18.5766 144.879 17.5981C145.243 16.6195 145.43 15.4749 145.44 14.1656C145.435 13.0618 145.278 12.0582 144.965 11.1594C144.657 10.256 144.222 9.47842 143.66 8.82605C143.093 8.17896 142.436 7.67683 141.677 7.32034C140.919 6.96911 140.09 6.79383 139.189 6.78856C137.99 6.79383 136.954 7.03962 136.078 7.52132C135.203 8.00829 134.5 8.69558 133.969 9.58913H133.909L133.757 7.09036H131.39C131.42 7.77765 131.451 8.51041 131.476 9.28798C131.497 10.0656 131.511 10.9189 131.511 11.8474V27.6254H131.512ZM134.152 13.2028C134.152 13.0374 134.173 12.8615 134.208 12.6757C134.243 12.4951 134.289 12.3192 134.334 12.1485C134.501 11.481 134.789 10.909 135.194 10.4227C135.594 9.93574 136.069 9.56474 136.621 9.29853C137.172 9.03231 137.759 8.90183 138.371 8.89722C139.079 8.90249 139.701 9.04812 140.248 9.33411C140.789 9.61482 141.244 10.0115 141.613 10.5084C141.987 11.0052 142.265 11.5772 142.458 12.2243C142.645 12.872 142.741 13.5593 142.741 14.2868C142.741 15.4057 142.564 16.3896 142.209 17.2324C141.861 18.0758 141.355 18.7275 140.693 19.2C140.03 19.6718 139.226 19.9123 138.28 19.9176C137.638 19.9123 137.046 19.7819 136.499 19.5209C135.953 19.26 135.488 18.8989 135.103 18.4369C134.719 17.9704 134.441 17.4333 134.274 16.8159C134.228 16.6505 134.198 16.4746 134.178 16.294C134.162 16.1135 134.152 15.9276 134.152 15.7319V13.2028ZM147.895 21.6639C148.163 21.6836 148.517 21.7093 148.957 21.739C149.401 21.764 149.888 21.7891 150.424 21.8095C150.954 21.8299 151.501 21.8444 152.052 21.8444C152.537 21.8444 153.063 21.8293 153.625 21.7891C154.192 21.7541 154.763 21.6836 155.339 21.5782C155.916 21.4728 156.472 21.3225 157.003 21.1268C157.535 20.9258 158.005 20.6701 158.425 20.3538C158.844 20.0375 159.173 19.6461 159.416 19.1849C159.659 18.7236 159.785 18.176 159.791 17.5388C159.785 16.8363 159.624 16.2393 159.3 15.7372C158.981 15.2403 158.541 14.8443 157.985 14.5478C157.424 14.2519 156.782 14.0562 156.058 13.9554V13.8954C156.619 13.7748 157.135 13.5692 157.595 13.278C158.055 12.9867 158.425 12.6157 158.698 12.1637C158.976 11.7123 159.117 11.1851 159.123 10.5828C159.117 9.94035 158.966 9.40396 158.678 8.96707C158.394 8.53084 158.01 8.17962 157.535 7.90813C157.055 7.6373 156.529 7.43631 155.952 7.29596C155.375 7.1556 154.793 7.06005 154.207 7.00997C153.621 6.95989 153.074 6.93485 152.569 6.93946C151.997 6.93946 151.42 6.95462 150.839 6.98427C150.258 7.01458 149.711 7.05478 149.2 7.10486C148.69 7.15494 148.255 7.21029 147.895 7.27026V21.6639H147.895ZM150.473 8.89722C150.671 8.87745 150.873 8.85702 151.075 8.83726C151.278 8.8221 151.495 8.80694 151.732 8.79179C151.965 8.7819 152.238 8.77663 152.537 8.77663C153.872 8.77663 154.863 8.95257 155.511 9.30314C156.163 9.65436 156.487 10.1914 156.481 10.9143C156.476 11.3512 156.36 11.7176 156.132 12.0134C155.904 12.3093 155.601 12.5505 155.217 12.7258C154.838 12.9063 154.408 13.0368 153.933 13.1172C153.462 13.1976 152.977 13.2325 152.476 13.2325H150.473V8.89722ZM150.443 14.9491H152.385C153.018 14.9438 153.619 14.9794 154.18 15.0545C154.737 15.125 155.238 15.2548 155.667 15.436C156.097 15.6219 156.436 15.8828 156.684 16.2189C156.927 16.555 157.053 16.9866 157.059 17.5085C157.053 17.9348 156.958 18.2966 156.765 18.5925C156.578 18.8883 156.32 19.1348 156.001 19.3199C155.683 19.5104 155.329 19.6613 154.934 19.7614C154.544 19.8669 154.14 19.9374 153.735 19.9822C153.326 20.0224 152.937 20.0375 152.567 20.0375C152.299 20.0375 152.046 20.0329 151.819 20.0277C151.591 20.0224 151.369 20.0125 151.151 19.9973C150.929 19.9822 150.691 19.967 150.443 19.9473V14.9491ZM162.274 7.09036V21.6632H165.369C165.885 20.8052 166.411 19.9367 166.937 19.0537C167.463 18.1707 167.979 17.3022 168.484 16.4541C168.995 15.6061 169.486 14.8028 169.951 14.0457C170.24 13.5587 170.513 13.0869 170.766 12.6302C171.019 12.1736 171.276 11.6965 171.535 11.1904C171.798 10.6883 172.091 10.1262 172.41 9.49951H172.47C172.44 10.0866 172.415 10.6237 172.389 11.1054C172.369 11.5871 172.349 12.049 172.334 12.4958C172.318 12.9426 172.308 13.4038 172.298 13.8862C172.293 14.3679 172.288 14.9049 172.288 15.4921V21.6645H174.837V7.09036H171.712L167.13 14.6176C166.882 15.0341 166.659 15.4209 166.462 15.782C166.265 16.1385 166.072 16.4845 165.896 16.8258C165.718 17.1671 165.536 17.5236 165.349 17.89C165.162 18.261 164.955 18.663 164.732 19.1045L164.641 19.0742C164.672 18.5575 164.697 18.0706 164.722 17.6086C164.742 17.1421 164.763 16.6854 164.778 16.2334C164.793 15.7767 164.803 15.3049 164.813 14.8186C164.819 14.3316 164.823 13.7999 164.823 13.2325V7.09036H162.274ZM188.397 19.1644C188.022 19.3397 187.572 19.4959 187.041 19.6362C186.515 19.7766 185.873 19.8471 185.119 19.857C184.386 19.857 183.714 19.7318 183.091 19.4807C182.474 19.2297 181.938 18.8686 181.478 18.3967C181.018 17.9249 180.664 17.353 180.406 16.6808C180.153 16.008 180.027 15.2502 180.022 14.4074C180.022 13.6496 180.133 12.9373 180.36 12.2744C180.583 11.6121 180.912 11.0296 181.351 10.5229C181.792 10.0161 182.332 9.61944 182.98 9.33345C183.622 9.04746 184.366 8.90183 185.21 8.89656C185.938 8.90183 186.555 8.97695 187.066 9.11731C187.577 9.25833 187.986 9.41384 188.305 9.58913L188.912 7.57206C188.664 7.43631 188.356 7.31111 187.982 7.19579C187.602 7.0752 187.177 6.98031 186.707 6.90453C186.237 6.82941 185.742 6.78922 185.21 6.78922C184.007 6.79449 182.925 6.98954 181.954 7.37108C180.987 7.75261 180.158 8.29428 179.471 8.99211C178.778 9.68467 178.247 10.5077 177.877 11.4513C177.513 12.395 177.326 13.4282 177.321 14.5577C177.326 15.6766 177.498 16.6907 177.842 17.5987C178.186 18.5121 178.676 19.2896 179.319 19.9473C179.956 20.6042 180.724 21.1064 181.62 21.4576C182.519 21.8141 183.521 21.9894 184.634 21.9946C185.291 21.9894 185.898 21.9393 186.45 21.849C187.001 21.7587 187.476 21.648 187.886 21.5176C188.296 21.3871 188.615 21.2665 188.852 21.1512L188.397 19.1644Z" clip-rule="evenodd"/><path fill="white" fill-rule="evenodd" d="M50.4608 28.6139L53.4154 32.8503L50.3174 37.2653H52.0646L53.3258 35.3174C53.4971 35.0611 53.6558 34.8107 53.8059 34.5669C53.956 34.3224 54.1001 34.072 54.2442 33.8163H54.2801C54.4328 34.076 54.5836 34.3257 54.7363 34.5728C54.8864 34.8199 55.0484 35.0677 55.2164 35.3181L56.5134 37.266H58.2965L55.2523 32.7976L58.2248 28.6152H56.4955L55.2888 30.4563C55.1354 30.6856 54.9853 30.9183 54.8412 31.1476C54.6945 31.3802 54.5497 31.6214 54.4062 31.8685H54.3697C54.2289 31.6299 54.0848 31.398 53.9407 31.1713C53.7966 30.9446 53.6372 30.7127 53.4692 30.4741L52.226 28.6152H50.4608V28.6139ZM76.0997 28.4353C75.496 28.4353 74.9349 28.5394 74.4122 28.745C73.8929 28.9506 73.4334 29.2511 73.0402 29.6445C72.6437 30.0379 72.3376 30.5176 72.1151 31.0804C71.8926 31.6464 71.7791 32.2895 71.7758 33.0104C71.7791 33.6958 71.8867 34.3125 72.0998 34.8601C72.313 35.4051 72.6072 35.8729 72.9884 36.2604C73.3663 36.6479 73.8079 36.9457 74.3126 37.1513C74.82 37.3569 75.3665 37.4584 75.9549 37.461C76.3753 37.461 76.7957 37.4044 77.2101 37.291C77.6245 37.175 78.0176 37.0024 78.3869 36.7639C78.7561 36.5286 79.0835 36.2308 79.3717 35.867C79.6573 35.5033 79.8824 35.0717 80.0445 34.5741C80.2098 34.0766 80.2935 33.508 80.2968 32.8674C80.2935 32.2091 80.1945 31.6069 79.9933 31.0652C79.7921 30.5262 79.5065 30.0583 79.1373 29.6649C78.7654 29.2715 78.3238 28.971 77.8104 28.7562C77.2977 28.5453 76.7273 28.4379 76.0997 28.4353ZM76.0632 29.6148C76.4384 29.6175 76.7685 29.686 77.054 29.8171C77.3422 29.9516 77.5886 30.1301 77.7925 30.3562C77.997 30.5828 78.1651 30.8392 78.2972 31.1245C78.4267 31.4079 78.5223 31.7057 78.5854 32.0154C78.6452 32.3225 78.6751 32.6263 78.6751 32.9215C78.6718 33.4098 78.606 33.8598 78.4739 34.2677C78.3417 34.6756 78.1584 35.0301 77.9187 35.3313C77.6816 35.6324 77.402 35.8644 77.0812 36.0311C76.7598 36.1952 76.4085 36.2782 76.0273 36.2815C75.6402 36.2782 75.2829 36.1952 74.9614 36.0285C74.6433 35.8617 74.3638 35.6291 74.13 35.3313C73.8989 35.0301 73.7189 34.6789 73.5894 34.2763C73.4632 33.871 73.3975 33.4335 73.3975 32.9564C73.3975 32.5452 73.4486 32.1433 73.5536 31.7466C73.6585 31.3532 73.8179 30.996 74.0337 30.6744C74.2495 30.3529 74.5291 30.0992 74.8651 29.9054C75.2018 29.7163 75.601 29.6181 76.0632 29.6148ZM95.3612 28.6139V32.0635C95.3646 32.7073 95.346 33.2701 95.3075 33.7584C95.2683 34.2473 95.1846 34.6578 95.0551 34.9979C94.9263 35.3346 94.7277 35.6028 94.4607 35.7991C94.3498 35.8888 94.2177 35.9632 94.0616 36.0252C93.9089 36.0845 93.7528 36.1299 93.5961 36.1563L93.7581 37.3899C94.0284 37.3899 94.2655 37.3688 94.4694 37.3273C94.6766 37.2825 94.8625 37.2232 95.0279 37.1428C95.1932 37.0624 95.346 36.9668 95.4874 36.8541C95.8626 36.6097 96.1482 36.267 96.3461 35.8262C96.544 35.3853 96.6828 34.8522 96.7545 34.2236C96.8262 33.5949 96.8595 32.874 96.8568 32.0642V29.8474H99.8472V37.2653H101.432V28.6139H95.3612ZM117.524 28.6139V30.8662C117.524 31.4738 117.482 32.0668 117.401 32.6447C117.316 33.2226 117.19 33.7794 117.02 34.3158C116.822 34.9412 116.533 35.531 116.155 36.0851L115.416 36.1207L115.488 39.9993H116.713L116.803 37.2647H122.838L122.909 39.9993H124.153L124.243 36.1029L123.342 36.0851V28.6139H117.524ZM118.911 29.8112H121.793V36.0673H117.776C117.911 35.8262 118.037 35.5725 118.151 35.3049C118.268 35.0367 118.37 34.7534 118.46 34.4588C118.613 33.9732 118.727 33.4612 118.799 32.9156C118.874 32.3706 118.91 31.8072 118.91 31.2233V29.8112H118.911ZM138.659 28.6139V37.2653H140.497C140.803 36.7559 141.115 36.2406 141.428 35.7161C141.74 35.1916 142.047 34.6763 142.346 34.1728C142.65 33.6694 142.941 33.193 143.217 32.7429C143.388 32.4543 143.55 32.1742 143.7 31.9027C143.85 31.6319 144.004 31.3486 144.157 31.0481C144.313 30.7502 144.487 30.4168 144.676 30.0438H144.712C144.694 30.3924 144.679 30.7113 144.664 30.9973C144.652 31.2833 144.64 31.5574 144.631 31.8223C144.621 32.0872 144.616 32.3614 144.61 32.6474C144.606 32.9333 144.604 33.2523 144.604 33.6002V37.2647H146.116V28.6139H144.261L141.541 33.0823C141.394 33.3294 141.262 33.5587 141.144 33.7735C141.027 33.985 140.913 34.1906 140.808 34.3929C140.703 34.5952 140.595 34.8068 140.484 35.0249C140.373 35.245 140.25 35.4835 140.118 35.7458L140.064 35.728C140.082 35.4216 140.097 35.1323 140.112 34.8582C140.124 34.5814 140.136 34.3099 140.145 34.0424C140.155 33.7709 140.161 33.4915 140.167 33.2022C140.17 32.9129 140.173 32.5973 140.173 32.2605V28.6139H138.659ZM161.217 28.6139V37.2653H162.803V33.3511H166.928V37.2653H168.513V28.6139H166.928V32.0991H162.803V28.6139H161.217ZM183.65 28.6139V37.2653H185.217V29.8652H189.001V28.6139H183.65Z" clip-rule="evenodd"/><path fill="white" fill-rule="evenodd" d="M21.5613 0C32.0521 0 40.5565 8.4386 40.5565 18.8481C40.5565 18.9668 40.5552 19.0847 40.5532 19.2033H42.088V21.8227H8.8717C8.86772 21.9169 8.86573 22.0111 8.86573 22.106C8.86573 25.8799 11.9491 28.9394 15.7524 28.9394C19.0736 28.9394 21.8455 26.6067 22.495 23.503H24.7337C24.8758 23.4279 25.0286 23.4134 25.1561 23.4918L25.1753 23.503H27.1085C27.064 23.8648 27.0016 24.2206 26.9239 24.5705L29.4362 26.1039C29.7085 26.2693 29.8453 26.6238 29.6925 26.9948L28.9209 28.8663C28.7681 29.2373 28.4195 29.3941 28.1087 29.3236L25.1089 28.6416C24.2848 29.8013 23.2475 30.801 22.0527 31.5838L22.6843 34.5577C22.75 34.868 22.5854 35.2107 22.2095 35.3557L20.3101 36.0884C19.9336 36.2334 19.579 36.0904 19.4169 35.8183L17.8928 33.2602C17.1988 33.3907 16.4836 33.4585 15.7518 33.4585C14.9575 33.4585 14.1825 33.3781 13.4341 33.2253L11.8064 35.7438C11.6337 36.0107 11.2744 36.1398 10.9032 35.981L9.03241 35.1804C8.66185 35.0216 8.51043 34.6723 8.58747 34.3659L9.31001 31.4883C8.13588 30.6929 7.11848 29.686 6.31359 28.5236L3.32249 29.2116C3.01103 29.2834 2.66304 29.1272 2.50897 28.7562L1.7333 26.8881C1.57923 26.5177 1.71603 26.1632 1.98699 25.9965L4.54908 24.4236C4.39235 23.675 4.31 22.9001 4.31 22.1054C4.31 22.0105 4.31133 21.9162 4.31332 21.822H0V19.2027H37.679C37.7673 16.862 37.3496 14.5201 36.3289 12.0886C36.1283 11.5502 35.3228 11.2036 34.6627 11.6003L24.3446 17.7569C24.3532 17.8221 24.3592 17.888 24.3631 17.9553H23.4268C23.3384 16.951 22.4891 16.1636 21.4544 16.1636C20.4197 16.1636 19.5703 16.9517 19.482 17.9553H18.5456H17.2938L7.30841 14.4885C6.58122 14.2328 5.864 14.7343 5.77766 15.3023C5.60168 16.211 5.49609 17.0933 5.45823 17.9546H2.98911H2.58799C3.05818 7.9602 11.3727 0 21.5613 0ZM23.802 16.4146L33.021 9.33281C33.6393 8.87417 33.6187 8.00369 33.191 7.61688C30.2338 4.71352 26.9259 3.25525 23.0887 2.77025C22.3343 2.64373 21.7705 2.79661 21.7273 3.7119L21.8462 15.2621C22.6465 15.3689 23.3444 15.7985 23.802 16.4146ZM20.358 15.4486L18.6512 4.2674C18.5377 3.5096 17.7547 3.11555 17.2088 3.30599C13.2309 4.51385 10.3692 6.71345 8.11994 9.83559C7.64976 10.4352 7.51827 11 8.30987 11.4718L18.8365 16.8555C19.152 16.2202 19.6939 15.7161 20.358 15.4486Z" clip-rule="evenodd"/></g><defs xmlns="http://www.w3.org/2000/svg"><clipPath id="clip0"><path fill="white" d="M0 0H189V40H0z"/></clipPath></defs>
		</g>
  </symbol>
  <view id="img-logo-view" viewBox="0 240 189 40"/>
  <use xlink:href="#img-logo" width="189" height="40" x="0" y="240"/>

  <symbol id="img-mail" viewBox="0 0 16 14">
		<g id="img-mail">
			<path fill="#DD7C51" d="M14.5712 13.2859C14.9309 13.2859 15.2425 13.1671 15.5075 12.9326L10.9744 8.39941C10.8656 8.47729 10.7602 8.55302 10.6606 8.62504C10.3214 8.87497 10.0461 9.07001 9.83467 9.20976C9.62328 9.34984 9.34203 9.49261 8.99094 9.63838C8.63963 9.78432 8.31233 9.85706 8.00871 9.85706H7.99982H7.99093C7.68729 9.85706 7.35999 9.78435 7.0087 9.63838C6.65741 9.49261 6.37616 9.34984 6.16498 9.20976C5.95359 9.07001 5.67841 8.875 5.339 8.62504C5.24442 8.5557 5.13952 8.47962 5.02611 8.39819L0.492188 12.9326C0.757085 13.1671 1.06892 13.2859 1.42855 13.2859H14.5712Z"/><path fill="#DD7C51" d="M0.901882 5.54483C0.562678 5.31868 0.261876 5.05968 0 4.76794V11.6649L3.99542 7.66947C3.19611 7.11144 2.16624 6.40404 0.901882 5.54483Z"/><path fill="#DD7C51" d="M15.1068 5.54483C13.8907 6.36796 12.8571 7.07658 12.0059 7.67106L15.9996 11.6651V4.76794C15.7436 5.05381 15.446 5.31264 15.1068 5.54483Z"/><path xmlns="http://www.w3.org/2000/svg" fill="#DD7C51" d="M14.5711 0.714355H1.42848C0.969972 0.714355 0.617464 0.869186 0.370519 1.17853C0.123371 1.48802 0 1.87506 0 2.33924C0 2.71417 0.16372 3.12042 0.491014 3.5581C0.818308 3.99561 1.16658 4.33925 1.53564 4.58922C1.73797 4.73217 2.34811 5.15634 3.36607 5.86159C3.91559 6.24239 4.39348 6.57431 4.80414 6.86073C5.15418 7.10462 5.45606 7.31584 5.7053 7.49112C5.73391 7.51119 5.77891 7.54338 5.83863 7.58608C5.90297 7.6323 5.9844 7.69095 6.08485 7.76348C6.27829 7.90338 6.43898 8.01647 6.56697 8.10286C6.69479 8.18928 6.84965 8.28581 7.03132 8.393C7.21285 8.50005 7.38406 8.58054 7.54476 8.63408C7.70549 8.68759 7.85428 8.71443 7.99115 8.71443H8.00004H8.00893C8.14578 8.71443 8.2946 8.68759 8.45536 8.63408C8.61603 8.58054 8.7871 8.50022 8.96877 8.393C9.15026 8.28581 9.30492 8.18908 9.43314 8.10286C9.56113 8.01647 9.72183 7.90341 9.9153 7.76348C10.0155 7.69095 10.097 7.63227 10.1613 7.58623C10.2211 7.54335 10.266 7.51137 10.2948 7.49112C10.489 7.35601 10.7916 7.14567 11.1984 6.8632C11.9386 6.34889 13.0287 5.5919 14.4734 4.58922C14.9079 4.28575 15.2709 3.91953 15.5626 3.49108C15.8538 3.06264 15.9998 2.61323 15.9998 2.14298C15.9998 1.75009 15.8583 1.41391 15.5758 1.13391C15.293 0.854255 14.958 0.714355 14.5711 0.714355Z"/>
		</g>
  </symbol>
  <view id="img-mail-view" viewBox="0 280 16 14"/>
  <use xlink:href="#img-mail" width="16" height="14" x="0" y="280"/>

 <symbol id="img-phone" viewBox="0 0 18 17">
		<g id="img-phone">
      <path
         d="M 1.39572,1.28217 1.5648812,1.1215746 1.5019423,1.1814738 1.3944995,1.2837274 1.27318,1.43854 C 1.07148,1.6959 0.900447,1.99588 0.772301,2.32223 0.652399,2.63877 0.580225,2.9339 0.547327,3.2251 L 0.546889,3.22885 C 0.249028,5.69819 1.34476,8.02329 4.6683,11.3469 c 4.45873,4.4584 8.0055,4.1379 8.1256,4.1258 0.3072,-0.037 0.6014,-0.1103 0.9034,-0.2275 0.3236,-0.1264 0.6242,-0.2974 0.8822,-0.4994 l 0.1226,-0.0959 0.5542,-0.5426 c 0.3243,-0.327 0.3148,-0.8245 0.0311,-1.1094 -10e-5,-10e-5 -2e-4,-2e-4 -2e-4,-3e-4 l -2.4697,-2.4699 -4e-4,-4e-4 c -0.2852,-0.2836 -0.7837,-0.2923 -1.1097,0.0338 l -10e-5,10e-5 -1.2448,1.2446 -0.2658,0.2657 -0.32909,-0.1814 C 9.78817,11.8464 9.70605,11.8007 9.61985,11.7523 l -4.1e-4,-2e-4 C 8.82687,11.3129 7.69932,10.6882 6.51549,9.50352 L 6.51534,9.50337 M 6.86903,9.14995 6.51534,9.50337 M 1.39572,1.28217 1.6131276,1.0635176 1.6891081,0.98710213 1.91061,0.764332 c 1.3e-4,-1.39e-4 2.7e-4,-2.78e-4 4.1e-4,-4.16e-4 0.3273,-0.326959 0.82553,-0.31702 1.10891,-0.033775 2e-5,2.4e-5 5e-5,4.8e-5 7e-5,7.2e-5 L 5.4907,3.20146 c 5e-5,5e-5 10e-5,1.1e-4 1.6e-4,1.6e-4 l 2e-5,2e-5 C 5.775,3.48631 5.78452,3.98439 5.45773,4.31128 L 5.45756,4.31145 5.04728,4.72223 5.0468,4.72271 4.21178,5.55648 3.94128,5.82659 4.131,6.15845 c 0.0355,0.0621 0.07139,0.12701 0.11062,0.19799 0.00652,0.01179 0.01313,0.02375 0.01985,0.03589 l 4e-4,7.4e-4 0.0055,0.00989 c 0.43998,0.79217 1.06506,1.9176 2.24797,3.10041" stroke="#E3834E"/>
		</g>
  </symbol>
  <view id="img-phone-view" viewBox="0 300 18 17"/>
  <use xlink:href="#img-phone" width="18" height="17" x="0" y="300"/>

 <symbol id="img-phone-2" viewBox="0 0 16 16">
		<g id="img-phone-2">
			<path d="M1.39572 1.28217L1.27318 1.43854C1.07148 1.6959 0.900447 1.99588 0.772301 2.32223C0.652399 2.63877 0.580225 2.9339 0.547327 3.2251L0.546889 3.22885C0.249028 5.69819 1.34476 8.02329 4.6683 11.3469C9.12703 15.8053 12.6738 15.4848 12.7939 15.4727C13.1011 15.4357 13.3953 15.3624 13.6973 15.2452C14.0209 15.1188 14.3215 14.9478 14.5795 14.7458L14.7021 14.6499L15.2563 14.1073C15.5806 13.7803 15.5711 13.2828 15.2874 12.9979C15.2873 12.9978 15.2872 12.9977 15.2872 12.9976L12.8175 10.5277C12.8174 10.5276 12.8172 10.5274 12.8171 10.5273C12.5319 10.2437 12.0334 10.235 11.7074 10.5611L11.7073 10.5612L10.4625 11.8058L10.1967 12.0715L9.86761 11.8901C9.78817 11.8464 9.70605 11.8007 9.61985 11.7523L9.61944 11.7521C8.82687 11.3129 7.69932 10.6882 6.51549 9.50352C6.51544 9.50347 6.51539 9.50342 6.51534 9.50337M1.39572 1.28217L4.70145 6.15475C5.13815 6.94099 5.7356 8.01667 6.86903 9.14995L6.51534 9.50337M1.39572 1.28217L1.91061 0.764332C1.91074 0.764193 1.91088 0.764054 1.91102 0.763916C2.23832 0.436957 2.73655 0.446896 3.01993 0.730141C3.01995 0.730165 3.01998 0.730189 3.02 0.730213L5.4907 3.20146C5.49075 3.20151 5.4908 3.20157 5.49086 3.20162C5.49086 3.20162 5.49087 3.20163 5.49088 3.20164C5.775 3.48631 5.78452 3.98439 5.45773 4.31128L5.45756 4.31145L5.04728 4.72223L5.0468 4.72271L4.21178 5.55648L3.94128 5.82659L4.131 6.15845C4.1665 6.22055 4.20239 6.28546 4.24162 6.35644C4.24814 6.36823 4.25475 6.38019 4.26147 6.39233L4.26187 6.39307L4.26737 6.40296C4.70735 7.19513 5.33243 8.32056 6.51534 9.50337M1.39572 1.28217L6.51534 9.50337" fill="#DD7B51" stroke="#E3834E"/>
		</g>
  </symbol>
  <view id="img-phone-2-view" viewBox="0 317 16 16"/>
  <use xlink:href="#img-phone-2" width="16" height="16" x="0" y="317"/>

 <symbol id="img-photo" viewBox="0 0 19 17">
		<g id="img-photo">
			<path fill="#DD7B51" d="M19 5.50841V13.8917C19 15.1713 17.9608 16.2104 16.6812 16.2104H2.31878C1.03918 16.2104 0 15.1713 0 13.8917V5.50841C0 4.29086 0.988775 3.30208 2.20633 3.30208H5.29286L5.36653 2.98024C5.6651 1.68902 6.80122 0.789429 8.12735 0.789429H10.8765C12.1988 0.789429 13.3349 1.68902 13.6373 2.98024L13.711 3.30208H16.7937C18.0112 3.30208 19 4.29473 19 5.50841ZM13.331 4.25208C13.11 4.25208 12.92 4.10086 12.8696 3.88371L12.7106 3.19351C12.509 2.33657 11.7567 1.73943 10.8765 1.73943H8.12735C7.24714 1.73943 6.4949 2.33657 6.29326 3.19351L6.13429 3.88371C6.08388 4.09698 5.89388 4.25208 5.67286 4.25208H2.2102C1.51612 4.25208 0.953876 4.81433 0.953876 5.50841V13.8917C0.953876 14.6478 1.56653 15.2604 2.32265 15.2604H16.6812C17.4373 15.2604 18.05 14.6478 18.05 13.8917V5.50841C18.05 4.81433 17.4878 4.25208 16.7937 4.25208H13.331Z"/><path xmlns="http://www.w3.org/2000/svg" fill="#DD7B51" d="M15.7855 6.916C15.4343 6.916 15.1496 6.63129 15.1496 6.28008C15.1496 5.92888 15.4343 5.64417 15.7855 5.64417C16.1367 5.64417 16.4214 5.92888 16.4214 6.28008C16.4214 6.63129 16.1367 6.916 15.7855 6.916Z"/><path xmlns="http://www.w3.org/2000/svg" fill="#DD7B51" d="M9.49999 13.7715C7.30142 13.7715 5.50999 11.9801 5.50999 9.7815C5.50999 7.58293 7.30142 5.7915 9.49999 5.7915C11.6986 5.7915 13.49 7.57905 13.49 9.7815C13.49 11.984 11.6986 13.7715 9.49999 13.7715ZM9.49999 6.7415C7.82489 6.7415 6.45999 8.1064 6.45999 9.7815C6.45999 11.4566 7.82489 12.8215 9.49999 12.8215C11.1751 12.8215 12.54 11.4566 12.54 9.7815C12.54 8.1064 11.1751 6.7415 9.49999 6.7415Z"/>
		</g>
  </symbol>
  <view id="img-photo-view" viewBox="0 340 19 17"/>
  <use xlink:href="#img-photo" width="19" height="17" x="0" y="340"/>

  <symbol id="img-point" viewBox="0 0 38 49">
		<g id="img-point">
			<path fill="#DD7B51" d="M18.5606 0C8.32616 0 0 8.20013 0 18.2796C0 33.2973 16.7131 47.9608 17.4249 48.5778C17.7493 48.8591 18.1549 49 18.5606 49C18.9663 49 19.3719 48.8593 19.6965 48.5778C20.4079 47.9609 37.1212 33.2974 37.1212 18.2796C37.1212 8.20013 28.7951 0 18.5606 0Z"/><path xmlns="http://www.w3.org/2000/svg" fill="white" fill-rule="evenodd" d="M18.6617 9.00006C24.6598 9.00006 29.5223 13.8249 29.5223 19.7765C29.5223 19.8443 29.5215 19.9118 29.5204 19.9796H30.3979V21.4772H11.4064C11.4041 21.5311 11.403 21.585 11.403 21.6392C11.403 23.7969 13.1659 25.5462 15.3405 25.5462C17.2394 25.5462 18.8242 24.2125 19.1956 22.438H20.4755C20.5568 22.395 20.6441 22.3867 20.717 22.4316L20.728 22.438H21.8333C21.8079 22.6448 21.7722 22.8483 21.7278 23.0483L23.1642 23.925C23.3199 24.0196 23.3981 24.2223 23.3108 24.4344L22.8695 25.5044C22.7822 25.7165 22.5829 25.8062 22.4052 25.7659L20.6901 25.3759C20.2189 26.039 19.6258 26.6106 18.9427 27.0582L19.3038 28.7585C19.3414 28.9359 19.2472 29.1319 19.0323 29.2147L17.9464 29.6337C17.7311 29.7166 17.5283 29.6348 17.4357 29.4792L16.5642 28.0166C16.1675 28.0912 15.7585 28.1301 15.3401 28.1301C14.886 28.1301 14.4429 28.0841 14.0149 27.9967L13.0843 29.4367C12.9856 29.5892 12.7802 29.6631 12.5679 29.5723L11.4983 29.1145C11.2864 29.0237 11.1998 28.824 11.2439 28.6489L11.657 27.0035C10.9857 26.5488 10.404 25.9731 9.94379 25.3085L8.23362 25.7018C8.05554 25.7429 7.85658 25.6536 7.76849 25.4415L7.325 24.3734C7.23691 24.1616 7.31513 23.9589 7.47005 23.8636L8.93493 22.9643C8.84532 22.5363 8.79824 22.0932 8.79824 21.6389C8.79824 21.5846 8.799 21.5307 8.80014 21.4768H6.33398V19.9792H27.877C27.9275 18.641 27.6887 17.302 27.1051 15.9117C26.9904 15.6039 26.5299 15.4057 26.1524 15.6325L20.253 19.1526C20.258 19.1899 20.2614 19.2276 20.2637 19.266H19.7283C19.6778 18.6918 19.1922 18.2416 18.6006 18.2416C18.009 18.2416 17.5234 18.6922 17.4729 19.266H16.9375H16.2218L10.5126 17.2839C10.0968 17.1377 9.68674 17.4244 9.63738 17.7492C9.53676 18.2687 9.47638 18.7732 9.45474 19.2656H8.04301H7.81368C8.0825 13.5513 12.8363 9.00006 18.6617 9.00006ZM19.9428 18.3852L25.2138 14.3361C25.5673 14.0739 25.5555 13.5762 25.311 13.355C23.6202 11.695 21.7289 10.8613 19.535 10.584C19.1037 10.5116 18.7813 10.599 18.7566 11.1224L18.8246 17.7262C19.2821 17.7872 19.6812 18.0329 19.9428 18.3852ZM17.9737 17.8328L16.9979 11.44C16.9329 11.0067 16.4853 10.7814 16.1732 10.8903C13.8988 11.5809 12.2626 12.8385 10.9766 14.6236C10.7078 14.9664 10.6326 15.2893 11.0852 15.5591L17.1038 18.6372C17.2842 18.274 17.594 17.9858 17.9737 17.8328Z" clip-rule="evenodd"/>
		</g>
  </symbol>
  <view id="img-point-view" viewBox="0 360 38 49"/>
  <use xlink:href="#img-point" width="38" height="49" x="0" y="360"/>

  <symbol id="img-right" viewBox="0 0 5 7">
		<g id="img-right">
      <rect x="0.000488281" y="5.68036" width="4.24469" height="1.14052" transform="rotate(-45 0.000488281 5.68036)" fill="white"/>
      <rect x="3.2417" y="4.04803" width="4.58426" height="1.14052" transform="rotate(-135 3.2417 4.04803)" fill="white"/>
		</g>
  </symbol>
  <view id="img-right-view" viewBox="0 410 5 7"/>
  <use xlink:href="#img-right" width="5" height="7" x="0" y="410"/>

  <symbol id="img-right-2" viewBox="0 0 5 7">
		<g id="img-right-2">
			<path fill="#DD7B51" d="M0 0H4.245V1.141H0z" transform="scale(1 -1) rotate(-45 -1.593 -.66)"/><path xmlns="http://www.w3.org/2000/svg" fill="#DD7B51" d="M0 0H4.584V1.141H0z" transform="scale(-1 1) rotate(45 -5.184 -2.437)"/>
		</g>
  </symbol>
  <view id="img-right-2-view" viewBox="0 417 5 7"/>
  <use xlink:href="#img-right-2" width="5" height="7" x="0" y="417"/>

  <symbol id="img-search" viewBox="0 0 15 15">
		<g id="img-search">
			<path fill="white" d="M14.8687 14.235L11.2234 10.5898C12.2013 9.46563 12.7933 7.99889 12.7933 6.39579C12.7933 2.86696 9.92299 0 6.3975 0C2.86867 0 0.00170898 2.87029 0.00170898 6.39579C0.00170898 9.92129 2.872 12.7916 6.3975 12.7916C8.0006 12.7916 9.46734 12.1996 10.5915 11.2217L14.2367 14.867C14.3232 14.9534 14.4396 15 14.5527 15C14.6658 15 14.7822 14.9568 14.8687 14.867C15.0416 14.694 15.0416 14.408 14.8687 14.235ZM0.896387 6.39579C0.896387 3.36253 3.36424 0.898004 6.39417 0.898004C9.42743 0.898004 11.892 3.36585 11.892 6.39579C11.892 9.42572 9.42743 11.8969 6.39417 11.8969C3.36424 11.8969 0.896387 9.42905 0.896387 6.39579Z"/>
		</g>
  </symbol>
  <view id="img-search-view" viewBox="0 425 15 15"/>
  <use xlink:href="#img-search" width="15" height="15" x="0" y="425"/>

 <symbol id="img-search-2" viewBox="0 0 18 18">
		<g id="img-search-2">
      <path xmlns="http://www.w3.org/2000/svg" fill="#AFAFAF" d="M17.8423 17.082L13.468 12.7078C14.6414 11.3588 15.3518 9.59867 15.3518 7.67494C15.3518 3.44035 11.9075 0 7.6769 0C3.44231 0 0.00195312 3.44435 0.00195312 7.67494C0.00195312 11.9055 3.4463 15.3499 7.6769 15.3499C9.60062 15.3499 11.3607 14.6395 12.7097 13.4661L17.084 17.8404C17.1878 17.9441 17.3274 18 17.4631 18C17.5988 18 17.7385 17.9481 17.8423 17.8404C18.0498 17.6328 18.0498 17.2896 17.8423 17.082ZM1.07557 7.67494C1.07557 4.03503 4.03699 1.07761 7.67291 1.07761C11.3128 1.07761 14.2702 4.03902 14.2702 7.67494C14.2702 11.3109 11.3128 14.2763 7.67291 14.2763C4.03699 14.2763 1.07557 11.3149 1.07557 7.67494Z"/>
		</g>
  </symbol>
  <view id="img-search-2-view" viewBox="0 440 18 18"/>
  <use xlink:href="#img-search-2" width="18" height="18" x="0" y="440"/>

  <symbol id="img-list" viewBox="0 0 20 20">
		<g id="img-list">
			<path fill="#DD7E51" stroke="#25272B" stroke-width=".1" d="M6.87502 9.81205L6.83966 9.77663L6.03218 8.96791L6.87502 9.81205ZM6.87502 9.81205L6.91041 9.77665M6.87502 9.81205L6.91041 9.77665M6.91041 9.77665L8.9678 7.718C8.96782 7.71798 8.96784 7.71796 8.96786 7.71794C9.19328 7.49374 9.5579 7.49488 9.78218 7.71916C10.0064 7.94338 10.0064 8.30798 9.78218 8.5322L7.28237 11.032C7.28234 11.032 7.2823 11.0321 7.28227 11.0321C7.16944 11.1437 7.02224 11.2001 6.87504 11.2001C6.72778 11.2001 6.58077 11.1437 6.46933 11.0311L6.46914 11.0309M6.91041 9.77665L6.46914 11.0309M6.46914 11.0309L5.21914 9.78095C4.99492 9.55673 4.99492 9.19213 5.21914 8.96791C5.44336 8.7437 5.80793 8.74369 6.03216 8.96788L6.46914 11.0309Z"/><path xmlns="http://www.w3.org/2000/svg" fill="#DD7E51" stroke="#25272B" stroke-width=".1" d="M6.83968 14.7766L6.87505 14.812L6.91041 14.7766L8.9678 12.7179C8.96782 12.7179 8.96784 12.7179 8.96786 12.7179C9.19328 12.4937 9.5579 12.4948 9.78218 12.7191C10.0064 12.9433 10.0064 13.3079 9.78218 13.5321L7.28237 16.032C7.28234 16.032 7.28232 16.032 7.2823 16.032C7.16946 16.1437 7.02225 16.2 6.87504 16.2C6.72775 16.2 6.58064 16.1436 6.46914 16.0321L5.21914 14.7821C4.99492 14.5579 4.99492 14.1933 5.21914 13.9691C5.44337 13.7449 5.80796 13.7449 6.03218 13.9691L6.83968 14.7766Z"/><path xmlns="http://www.w3.org/2000/svg" fill="#DD7E51" stroke="#25272B" stroke-width=".1" d="M11.875 8.8H14.375C14.6924 8.8 14.95 9.05761 14.95 9.375C14.95 9.69239 14.6924 9.95 14.375 9.95H11.875C11.5576 9.95 11.3 9.69239 11.3 9.375C11.3 9.05761 11.5576 8.8 11.875 8.8Z"/><path xmlns="http://www.w3.org/2000/svg" fill="#DD7E51" stroke="#25272B" stroke-width=".1" d="M11.875 13.8H14.375C14.6924 13.8 14.95 14.0576 14.95 14.375C14.95 14.6924 14.6924 14.95 14.375 14.95H11.875C11.5576 14.95 11.3 14.6924 11.3 14.375C11.3 14.0576 11.5576 13.8 11.875 13.8Z"/><path xmlns="http://www.w3.org/2000/svg" fill="#DD7E51" stroke="#25272B" stroke-width=".1" d="M13.7 2.5V2.55H13.75H16.25C16.9111 2.55 17.45 3.08886 17.45 3.75V18.75C17.45 19.4111 16.9111 19.95 16.25 19.95H3.75C3.08886 19.95 2.55 19.4111 2.55 18.75V3.75C2.55 3.08886 3.08886 2.55 3.75 2.55H6.25H6.3V2.5V1.875C6.3 1.55761 6.55761 1.3 6.875 1.3H8.23125H8.26653L8.27836 1.26676C8.53027 0.558482 9.20689 0.05 10 0.05C10.7931 0.05 11.4697 0.558482 11.7216 1.26676L11.7335 1.3H11.7688H13.125C13.4424 1.3 13.7 1.55761 13.7 1.875V2.5ZM7.5 2.45H7.45V2.5V3.75V3.8H7.5H12.5H12.55V3.75V2.5V2.45H12.5H11.25C10.9326 2.45 10.675 2.19239 10.675 1.875C10.675 1.50239 10.3726 1.2 10 1.2C9.62739 1.2 9.325 1.50239 9.325 1.875C9.325 2.19239 9.06739 2.45 8.75 2.45H7.5ZM16.25 18.8H16.3V18.75V3.75V3.7H16.25H13.75H13.7V3.75V4.375C13.7 4.69239 13.4424 4.95 13.125 4.95H6.875C6.55761 4.95 6.3 4.69239 6.3 4.375V3.75V3.7H6.25H3.75H3.7V3.75V18.75V18.8H3.75H16.25Z"/>
		</g>
  </symbol>
  <view id="img-list-view" viewBox="0 460 20 20"/>
  <use xlink:href="#img-list" width="20" height="20" x="0" y="460"/>

 <symbol id="img-spare" viewBox="0 0 35 35">
		<g id="img-spare">
			<g clip-path="url(#clip0)"><mask id="a" fill="white"><path d="M33.2085 13.8269L30.7518 13.4101C30.4959 12.5839 30.1669 11.787 29.7648 11.0266L31.2125 9.00134C31.8266 8.13859 31.7316 6.96145 30.9785 6.21568L28.7997 4.03688C28.3903 3.62744 27.8492 3.40079 27.2716 3.40079C26.8183 3.40079 26.3869 3.5397 26.0214 3.80292L23.9888 5.25058C23.1991 4.83383 22.373 4.49019 21.5175 4.23429L21.1081 1.8069C20.9326 0.761364 20.0333 0.000976562 18.9731 0.000976562H15.895C14.8349 0.000976562 13.9356 0.761364 13.7601 1.8069L13.336 4.29278C12.5172 4.54868 11.7202 4.88501 10.9598 5.29445L8.94918 3.84678C8.58361 3.58357 8.14492 3.44466 7.69162 3.44466C7.11401 3.44466 6.56566 3.67131 6.16353 4.08075L3.97741 6.25955C3.23165 7.00532 3.12929 8.18246 3.74345 9.04521L5.20573 11.0997C4.8036 11.8674 4.4819 12.6644 4.23331 13.4905L1.80592 13.9C0.760388 14.0755 0 14.9748 0 16.0349V19.113C0 20.1732 0.760388 21.0725 1.80592 21.248L4.2918 21.672C4.5477 22.4909 4.88403 23.2879 5.29347 24.0482L3.85312 26.0516C3.23896 26.9143 3.33401 28.0915 4.08709 28.8372L6.26589 31.016C6.67533 31.4255 7.21637 31.6521 7.79398 31.6521C8.24728 31.6521 8.67866 31.5132 9.04423 31.25L11.0987 29.7877C11.8372 30.1752 12.6122 30.4896 13.4091 30.7382L13.8186 33.1948C13.9941 34.2404 14.8934 35.0008 15.9535 35.0008H19.0389C20.0991 35.0008 20.9984 34.2404 21.1739 33.1948L21.5906 30.7382C22.4168 30.4823 23.2138 30.1533 23.9742 29.7512L25.9994 31.1988C26.365 31.462 26.8037 31.6009 27.257 31.6009C27.8346 31.6009 28.3756 31.3743 28.7851 30.9648L30.9639 28.786C31.7096 28.0403 31.812 26.8631 31.1978 26.0004L29.7502 23.9678C30.1523 23.2001 30.4886 22.4032 30.7372 21.5843L33.1939 21.1749C34.2394 20.9994 34.9998 20.1001 34.9998 19.0399V15.9618C35.0144 14.9017 34.254 14.0023 33.2085 13.8269ZM33.0403 19.0399C33.0403 19.135 32.9745 19.2154 32.8795 19.23L29.8087 19.7418C29.4212 19.8076 29.1141 20.0928 29.019 20.4656C28.7412 21.5404 28.3171 22.5713 27.7468 23.5291C27.5494 23.8655 27.5641 24.2822 27.7907 24.6039L29.5966 27.1483C29.6478 27.2214 29.6405 27.3311 29.5747 27.3969L27.3959 29.5757C27.3447 29.6269 27.2935 29.6342 27.257 29.6342C27.2131 29.6342 27.1766 29.6195 27.1473 29.5976L24.6102 27.7917C24.2959 27.565 23.8718 27.5504 23.5355 27.7478C22.5777 28.3181 21.5468 28.7422 20.472 29.02C20.0918 29.1151 19.8066 29.4294 19.7482 29.8096L19.229 32.8804C19.2144 32.9755 19.134 33.0413 19.0389 33.0413H15.9608C15.8658 33.0413 15.7854 32.9755 15.7707 32.8804L15.2589 29.8096C15.1931 29.4221 14.908 29.1151 14.5351 29.02C13.4896 28.7495 12.4806 28.3327 11.5374 27.7917C11.3839 27.704 11.2084 27.6601 11.0402 27.6601C10.8428 27.6601 10.6381 27.7186 10.47 27.8429L7.91096 29.6634C7.8744 29.6853 7.83784 29.7 7.80129 29.7C7.77204 29.7 7.71355 29.6927 7.66237 29.6415L5.48357 27.4627C5.41776 27.3969 5.41045 27.2945 5.46163 27.2141L7.26024 24.6916C7.4869 24.3699 7.50152 23.9459 7.30411 23.6096C6.73382 22.6591 6.29514 21.6282 6.0173 20.5534C5.91494 20.1805 5.60786 19.8954 5.22767 19.8295L2.13494 19.3031C2.03989 19.2885 1.97408 19.2081 1.97408 19.113V16.0349C1.97408 15.9399 2.03989 15.8594 2.13494 15.8448L5.1838 15.333C5.5713 15.2672 5.8857 14.9821 5.98074 14.6019C6.25127 13.5271 6.66802 12.4889 7.231 11.5311C7.42841 11.1948 7.40647 10.778 7.17982 10.4636L5.35927 7.90462C5.30809 7.83151 5.3154 7.72184 5.38121 7.65603L7.56001 5.47723C7.61119 5.42605 7.66237 5.41874 7.69893 5.41874C7.7428 5.41874 7.77935 5.43336 7.8086 5.4553L10.331 7.25391C10.6527 7.48056 11.0768 7.49518 11.4131 7.29778C12.3636 6.72748 13.3945 6.2888 14.4693 6.01096C14.8422 5.90861 15.1273 5.60153 15.1931 5.22133L15.7196 2.1286C15.7342 2.03355 15.8146 1.96775 15.9097 1.96775H18.9878C19.0828 1.96775 19.1632 2.03355 19.1779 2.1286L19.6897 5.17746C19.7555 5.56497 20.0406 5.87936 20.4208 5.97441C21.5248 6.25224 22.5777 6.68362 23.5574 7.26122C23.8937 7.45863 24.3105 7.444 24.6322 7.21735L27.1546 5.40412C27.1912 5.38218 27.2277 5.36756 27.2643 5.36756C27.2935 5.36756 27.352 5.37487 27.4032 5.42605L29.582 7.60486C29.6478 7.67066 29.6551 7.77302 29.6039 7.85344L27.798 10.3905C27.5714 10.7049 27.5568 11.129 27.7542 11.4653C28.3245 12.4231 28.7485 13.454 29.0263 14.5288C29.1214 14.909 29.4358 15.1941 29.816 15.2526L32.8868 15.7717C32.9818 15.7863 33.0476 15.8668 33.0476 15.9618V19.0399H33.0403Z"/></mask><path fill="#DD7B51" stroke="#25272B" stroke-width=".6" d="M33.2085 13.8269L30.7518 13.4101C30.4959 12.5839 30.1669 11.787 29.7648 11.0266L31.2125 9.00134C31.8266 8.13859 31.7316 6.96145 30.9785 6.21568L28.7997 4.03688C28.3903 3.62744 27.8492 3.40079 27.2716 3.40079C26.8183 3.40079 26.3869 3.5397 26.0214 3.80292L23.9888 5.25058C23.1991 4.83383 22.373 4.49019 21.5175 4.23429L21.1081 1.8069C20.9326 0.761364 20.0333 0.000976562 18.9731 0.000976562H15.895C14.8349 0.000976562 13.9356 0.761364 13.7601 1.8069L13.336 4.29278C12.5172 4.54868 11.7202 4.88501 10.9598 5.29445L8.94918 3.84678C8.58361 3.58357 8.14492 3.44466 7.69162 3.44466C7.11401 3.44466 6.56566 3.67131 6.16353 4.08075L3.97741 6.25955C3.23165 7.00532 3.12929 8.18246 3.74345 9.04521L5.20573 11.0997C4.8036 11.8674 4.4819 12.6644 4.23331 13.4905L1.80592 13.9C0.760388 14.0755 0 14.9748 0 16.0349V19.113C0 20.1732 0.760388 21.0725 1.80592 21.248L4.2918 21.672C4.5477 22.4909 4.88403 23.2879 5.29347 24.0482L3.85312 26.0516C3.23896 26.9143 3.33401 28.0915 4.08709 28.8372L6.26589 31.016C6.67533 31.4255 7.21637 31.6521 7.79398 31.6521C8.24728 31.6521 8.67866 31.5132 9.04423 31.25L11.0987 29.7877C11.8372 30.1752 12.6122 30.4896 13.4091 30.7382L13.8186 33.1948C13.9941 34.2404 14.8934 35.0008 15.9535 35.0008H19.0389C20.0991 35.0008 20.9984 34.2404 21.1739 33.1948L21.5906 30.7382C22.4168 30.4823 23.2138 30.1533 23.9742 29.7512L25.9994 31.1988C26.365 31.462 26.8037 31.6009 27.257 31.6009C27.8346 31.6009 28.3756 31.3743 28.7851 30.9648L30.9639 28.786C31.7096 28.0403 31.812 26.8631 31.1978 26.0004L29.7502 23.9678C30.1523 23.2001 30.4886 22.4032 30.7372 21.5843L33.1939 21.1749C34.2394 20.9994 34.9998 20.1001 34.9998 19.0399V15.9618C35.0144 14.9017 34.254 14.0023 33.2085 13.8269ZM33.0403 19.0399C33.0403 19.135 32.9745 19.2154 32.8795 19.23L29.8087 19.7418C29.4212 19.8076 29.1141 20.0928 29.019 20.4656C28.7412 21.5404 28.3171 22.5713 27.7468 23.5291C27.5494 23.8655 27.5641 24.2822 27.7907 24.6039L29.5966 27.1483C29.6478 27.2214 29.6405 27.3311 29.5747 27.3969L27.3959 29.5757C27.3447 29.6269 27.2935 29.6342 27.257 29.6342C27.2131 29.6342 27.1766 29.6195 27.1473 29.5976L24.6102 27.7917C24.2959 27.565 23.8718 27.5504 23.5355 27.7478C22.5777 28.3181 21.5468 28.7422 20.472 29.02C20.0918 29.1151 19.8066 29.4294 19.7482 29.8096L19.229 32.8804C19.2144 32.9755 19.134 33.0413 19.0389 33.0413H15.9608C15.8658 33.0413 15.7854 32.9755 15.7707 32.8804L15.2589 29.8096C15.1931 29.4221 14.908 29.1151 14.5351 29.02C13.4896 28.7495 12.4806 28.3327 11.5374 27.7917C11.3839 27.704 11.2084 27.6601 11.0402 27.6601C10.8428 27.6601 10.6381 27.7186 10.47 27.8429L7.91096 29.6634C7.8744 29.6853 7.83784 29.7 7.80129 29.7C7.77204 29.7 7.71355 29.6927 7.66237 29.6415L5.48357 27.4627C5.41776 27.3969 5.41045 27.2945 5.46163 27.2141L7.26024 24.6916C7.4869 24.3699 7.50152 23.9459 7.30411 23.6096C6.73382 22.6591 6.29514 21.6282 6.0173 20.5534C5.91494 20.1805 5.60786 19.8954 5.22767 19.8295L2.13494 19.3031C2.03989 19.2885 1.97408 19.2081 1.97408 19.113V16.0349C1.97408 15.9399 2.03989 15.8594 2.13494 15.8448L5.1838 15.333C5.5713 15.2672 5.8857 14.9821 5.98074 14.6019C6.25127 13.5271 6.66802 12.4889 7.231 11.5311C7.42841 11.1948 7.40647 10.778 7.17982 10.4636L5.35927 7.90462C5.30809 7.83151 5.3154 7.72184 5.38121 7.65603L7.56001 5.47723C7.61119 5.42605 7.66237 5.41874 7.69893 5.41874C7.7428 5.41874 7.77935 5.43336 7.8086 5.4553L10.331 7.25391C10.6527 7.48056 11.0768 7.49518 11.4131 7.29778C12.3636 6.72748 13.3945 6.2888 14.4693 6.01096C14.8422 5.90861 15.1273 5.60153 15.1931 5.22133L15.7196 2.1286C15.7342 2.03355 15.8146 1.96775 15.9097 1.96775H18.9878C19.0828 1.96775 19.1632 2.03355 19.1779 2.1286L19.6897 5.17746C19.7555 5.56497 20.0406 5.87936 20.4208 5.97441C21.5248 6.25224 22.5777 6.68362 23.5574 7.26122C23.8937 7.45863 24.3105 7.444 24.6322 7.21735L27.1546 5.40412C27.1912 5.38218 27.2277 5.36756 27.2643 5.36756C27.2935 5.36756 27.352 5.37487 27.4032 5.42605L29.582 7.60486C29.6478 7.67066 29.6551 7.77302 29.6039 7.85344L27.798 10.3905C27.5714 10.7049 27.5568 11.129 27.7542 11.4653C28.3245 12.4231 28.7485 13.454 29.0263 14.5288C29.1214 14.909 29.4358 15.1941 29.816 15.2526L32.8868 15.7717C32.9818 15.7863 33.0476 15.8668 33.0476 15.9618V19.0399H33.0403Z" mask="url(#a)"/><path fill="#DD7B51" stroke="#25272B" stroke-width=".3" d="M10.1007 17.4963C10.1007 13.4116 13.4187 10.0936 17.5034 10.0936C21.5881 10.0936 24.9061 13.4116 24.9061 17.4963C24.9061 21.581 21.5881 24.899 17.5034 24.899C13.4187 24.899 10.1007 21.581 10.1007 17.4963ZM11.7748 17.4963C11.7748 20.6573 14.3424 23.2249 17.5034 23.2249C20.6643 23.2249 23.232 20.6573 23.232 17.4963C23.232 14.3354 20.6643 11.7677 17.5034 11.7677C14.3424 11.7677 11.7748 14.3354 11.7748 17.4963Z"/></g><defs xmlns="http://www.w3.org/2000/svg"><clipPath id="clip0"><path fill="white" d="M0 0H35V35H0z"/></clipPath></defs>
		</g>
  </symbol>
  <view id="img-spare-view" viewBox="0 480 35 35"/>
  <use xlink:href="#img-spare" width="35" height="35" x="0" y="480"/>

 <symbol id="img-taxi" viewBox="0 0 117 94">
		<g id="img-taxi">
			<g filter="url(#filter0_d)"><path fill="#DD7B51" stroke="#25272B" stroke-width=".6" d="M42.6526 47.6087C42.6024 47.673 42.5762 47.745 42.5703 47.8156C42.5649 47.8801 42.578 47.9306 42.5818 47.9453C42.5818 47.9454 42.5818 47.9454 42.5818 47.9455L43.3062 50.8428L43.5974 50.7706L43.3063 50.8433L43.3063 50.8431C43.3498 51.018 43.5071 51.1391 43.6853 51.1391H73.3142C73.4932 51.1391 73.6495 51.0177 73.6931 50.8432C73.6931 50.8431 73.6931 50.843 73.6932 50.8429L74.4176 47.9456L74.4178 47.9446C74.4215 47.9302 74.4346 47.8794 74.429 47.8146C74.4228 47.7441 74.3966 47.6725 74.3467 47.6087L74.1103 47.7935L74.3467 47.6087C74.2965 47.5445 74.2331 47.5019 74.1661 47.4791C74.1058 47.4585 74.054 47.4586 74.0404 47.4587L74.039 47.4587H42.9603C42.9599 47.4587 42.9594 47.4587 42.9589 47.4587C42.9453 47.4587 42.8936 47.4585 42.8333 47.479C42.7665 47.5017 42.703 47.5443 42.6526 47.6087ZM42.6526 47.6087L42.8889 47.7935L42.6526 47.6087C42.6526 47.6087 42.6526 47.6087 42.6526 47.6087ZM40.5266 48.4575L40.5266 48.4574C40.3377 47.7022 40.5038 46.9189 40.983 46.3051C41.4624 45.6914 42.182 45.3403 42.9604 45.3403H74.039C74.8175 45.3403 75.5373 45.6915 76.0164 46.3051C76.4956 46.9188 76.6618 47.702 76.473 48.4575L75.7481 51.3568C75.4681 52.476 74.4677 53.2572 73.3142 53.2572H43.6853C42.5319 53.2572 41.5313 52.476 41.2515 51.357L40.5266 48.4575Z"/><path fill="#DD7B51" stroke="#25272B" stroke-width=".6" d="M27.6157 32.7218L27.799 33.8624L28.1938 32.7767L31.8192 22.8063C32.5932 20.6775 34.6364 19.2464 36.9016 19.2464H47.2382H50.01H66.9897H69.7617H80.0982C82.3635 19.2464 84.4066 20.6774 85.1806 22.8064L85.4626 22.7039L85.1806 22.8064L88.8062 32.7768L89.2009 33.8624L89.3843 32.722C89.6872 30.8381 91.3247 29.394 93.292 29.394H94.7416C96.924 29.394 98.7 31.17 98.7 33.3524C98.7 35.5347 96.924 37.3107 94.7416 37.3107H93.2919C92.6695 37.3107 92.0811 37.1661 91.5569 36.9093L91.1907 37.3661L94.2978 41.2501L94.532 41.0627L94.2978 41.2502C95.2668 42.4612 95.8006 43.9831 95.8006 45.534V72.4933C95.8006 73.8764 94.675 75.002 93.2919 75.002H88.9429C87.5597 75.002 86.4341 73.8764 86.4341 72.4933V66.604V66.304H86.1341H30.8657H30.5657V66.604V72.4933C30.5657 73.8764 29.4401 75.002 28.057 75.002H23.708C22.3248 75.002 21.1992 73.8764 21.1992 72.4933V45.534C21.1992 43.9831 21.7331 42.4613 22.7021 41.2501L22.7021 41.2501L25.8092 37.3661L25.4429 36.9093C24.9187 37.1661 24.3303 37.3107 23.708 37.3107H22.2584C20.076 37.3107 18.3 35.5347 18.3 33.3524C18.3 31.17 20.076 29.394 22.2585 29.394H23.7081C25.6755 29.394 27.3129 30.8381 27.6157 32.7218ZM28.4476 72.4933V72.1933H28.4475V66.604V66.304H28.1475H26.6072C25.5692 66.304 24.5993 66.0095 23.7749 65.5004L23.3173 65.2179V65.7557V72.4933C23.3173 72.7089 23.4923 72.8839 23.708 72.8839H28.057C28.2726 72.8839 28.4476 72.7089 28.4476 72.4933ZM42.1631 63.8859V64.1859H42.4631H74.5369H74.537H74.837V63.8859V60.896C74.837 60.6804 74.6621 60.5054 74.4464 60.5054H42.5538C42.3381 60.5054 42.1631 60.6804 42.1631 60.896V63.8859ZM93.6825 72.4933V72.1933H93.6824V65.7557V65.2179L93.2247 65.5004C92.4004 66.0095 91.4305 66.304 90.3925 66.304H88.8522H88.5522V66.604V72.4933C88.5522 72.7089 88.7272 72.8839 88.9429 72.8839H93.2919C93.5076 72.8839 93.6825 72.7089 93.6825 72.4933ZM87.0028 35.1925H87.4311L87.2848 34.79L83.1901 23.5299L82.9082 23.6324L83.1901 23.5298C82.7189 22.2343 81.4772 21.3643 80.0984 21.3643H36.902C35.5232 21.3643 34.2812 22.2341 33.8102 23.5299L29.7156 34.79L29.5692 35.1925H29.9975H87.0028ZM88.5244 37.4233L88.4343 37.3107H88.2901H28.7102H28.566L28.4759 37.4233L24.3562 42.5733C24.3562 42.5733 24.3562 42.5733 24.3562 42.5733C23.6862 43.4107 23.3175 44.4618 23.3175 45.5342V60.896C23.3175 62.7103 24.793 64.1859 26.6074 64.1859H39.745H40.045V63.8859V60.896C40.045 59.5129 41.1706 58.3873 42.5538 58.3873H74.4462C75.8294 58.3873 76.955 59.5129 76.955 60.896V63.8859V64.1859H77.255H90.3928C92.2071 64.1859 93.6827 62.7103 93.6827 60.896V45.5342C93.6827 44.4618 93.3138 43.4107 92.6442 42.5734L92.4099 42.7607L92.6442 42.5733L88.5244 37.4233ZM22.2585 35.1927H23.7081C24.723 35.1927 25.5484 34.3673 25.5484 33.3524C25.5484 32.3373 24.7232 31.5121 23.7081 31.5121H22.2585C21.2434 31.5121 20.4182 32.3373 20.4182 33.3524C20.4182 34.3675 21.2434 35.1927 22.2585 35.1927ZM93.2919 31.5121C92.2768 31.5121 91.4516 32.3373 91.4516 33.3524C91.4516 34.3673 92.277 35.1927 93.2919 35.1927H94.7415C95.7566 35.1927 96.5818 34.3675 96.5818 33.3524C96.5818 32.3373 95.7566 31.5121 94.7415 31.5121H93.2919Z"/><path fill="#DD7B51" stroke="#25272B" stroke-width=".6" d="M29.8977 57.9966C29.8977 56.6135 31.0233 55.4879 32.4064 55.4879C33.7895 55.4879 34.9151 56.6135 34.9151 57.9966C34.9151 59.3797 33.7895 60.5053 32.4064 60.5053C31.0233 60.5053 29.8977 59.3797 29.8977 57.9966Z"/><path fill="#DD7B51" stroke="#25272B" stroke-width=".6" d="M82.0852 57.9966C82.0852 56.6135 83.2108 55.4879 84.5939 55.4879C85.9769 55.4879 87.1026 56.6135 87.1026 57.9966C87.1026 59.3797 85.977 60.5053 84.5939 60.5053C83.2108 60.5053 82.0852 59.3797 82.0852 57.9966Z"/><path fill="#DD7B51" stroke="#25272B" stroke-width=".6" d="M26.9982 48.5739C26.9982 45.9918 29.0993 43.8907 31.6815 43.8907C34.2636 43.8907 36.3647 45.9918 36.3647 48.5739C36.3647 51.1561 34.2636 53.2572 31.6815 53.2572C29.0993 53.2572 26.9982 51.1561 26.9982 48.5739ZM29.1163 48.5738C29.1163 49.9887 30.2668 51.1389 31.6815 51.1389C33.0962 51.1389 34.2466 49.9887 34.2466 48.5738C34.2466 47.1589 33.0963 46.0086 31.6815 46.0086C30.2666 46.0086 29.1163 47.1589 29.1163 48.5738Z"/><path fill="#DD7B51" stroke="#25272B" stroke-width=".6" d="M80.6359 48.5739C80.6359 45.9918 82.737 43.8907 85.3192 43.8907C87.9013 43.8907 90.0024 45.9918 90.0024 48.5739C90.0024 51.1561 87.9013 53.2572 85.3192 53.2572C82.737 53.2572 80.6359 51.1561 80.6359 48.5739ZM82.754 48.5738C82.754 49.9887 83.9045 51.1389 85.3192 51.1389C86.734 51.1389 87.8843 49.9886 87.8843 48.5738C87.8843 47.1589 86.7339 46.0086 85.3192 46.0086C83.9043 46.0086 82.754 47.1589 82.754 48.5738Z"/></g><defs xmlns="http://www.w3.org/2000/svg"><filter id="filter0_d" width="117" height="117" x="0" y="-15" color-interpolation-filters="sRGB" filterUnits="userSpaceOnUse"><feFlood flood-opacity="0" result="BackgroundImageFix"/><feColorMatrix in="SourceAlpha" values="0 0 0 0 0 0 0 0 0 0 0 0 0 0 0 0 0 0 127 0"/><feOffset/><feGaussianBlur stdDeviation="9"/><feColorMatrix values="0 0 0 0 0.890196 0 0 0 0 0.513726 0 0 0 0 0.305882 0 0 0 0.3 0"/><feBlend in2="BackgroundImageFix" result="effect1_dropShadow"/><feBlend in="SourceGraphic" in2="effect1_dropShadow" result="shape"/></filter></defs>
		</g>
  </symbol>
  <view id="img-taxi-view" viewBox="0 520 117 94"/>
  <use xlink:href="#img-taxi" width="117" height="94" x="0" y="520"/>

 <symbol id="img-train" viewBox="0 0 103 117">
		<g id="img-train">
			<g filter="url(#filter0_d)"><path fill="#DD7B51" stroke="#25272B" stroke-width=".8" d="M62.983 25.9102C62.983 25.2578 63.5127 24.7281 64.165 24.7281C64.8174 24.7281 65.3471 25.2578 65.3471 25.9102C65.3471 26.5625 64.8174 27.0922 64.165 27.0922C63.5127 27.0922 62.983 26.5625 62.983 25.9102Z"/><path fill="#DD7B51" stroke="#25272B" stroke-width=".8" d="M37.6705 25.9102C37.6705 25.2578 38.2002 24.7281 38.8525 24.7281C39.5049 24.7281 40.0346 25.2578 40.0346 25.9102C40.0346 26.5625 39.5049 27.0922 38.8525 27.0922C38.2002 27.0922 37.6705 26.5625 37.6705 25.9102Z"/><path fill="#DD7B51" stroke="#25272B" stroke-width=".8" d="M73.038 85.0195L73.9294 84.9875C77.9445 84.8436 81.1674 81.5336 81.1674 77.4844V30.5408C81.1674 28.0773 80.3062 25.6709 78.7425 23.7661C77.1775 21.8615 74.9846 20.5489 72.5698 20.0712L72.5696 20.0712C66.9803 18.9622 61.2576 18.4 55.5606 18.4H47.2027C41.7848 18.4 36.1413 18.919 30.4306 20.0603L73.038 85.0195ZM73.038 85.0195L73.6548 85.6638M73.038 85.0195L73.6548 85.6638M73.6548 85.6638L84.1234 96.6006C84.4509 96.9427 84.5426 97.4468 84.3566 97.8823C84.1707 98.3175 83.743 98.6 83.2697 98.6H72.1164C71.7375 98.6 71.3815 98.4183 71.1591 98.1115L66.3602 91.488L66.2404 91.3227H66.0363H37.1222H36.918L36.7982 91.488L31.9993 98.1115C31.7769 98.4183 31.421 98.6 31.0421 98.6H19.7306C19.2559 98.6 18.8272 98.3159 18.6422 97.8789L18.6421 97.8787C18.4569 97.4418 18.5512 96.9365 18.8816 96.5956L18.8816 96.5955L29.4684 85.6683L30.1057 85.0106M73.6548 85.6638L30.1057 85.0106M30.1057 85.0106L29.1901 84.99M30.1057 85.0106L29.1901 84.99M29.1901 84.99C25.1278 84.899 21.8502 81.5678 21.8502 77.4844V30.5281C21.8502 25.4582 25.4594 21.0549 30.4306 20.0603L29.1901 84.99ZM30.894 22.3784L30.8941 22.3784C36.0833 21.3413 41.5664 20.7641 47.2025 20.7641H55.5604C61.1035 20.7641 66.671 21.311 72.1098 22.3899L30.894 22.3784ZM30.894 22.3784C27.0229 23.153 24.2143 26.5797 24.2143 30.5281V77.4844C24.2143 80.3223 26.5225 82.6305 29.3602 82.6305H73.6571C76.495 82.6305 78.8032 80.3223 78.8032 77.4844V30.5406C78.8032 28.6222 78.1329 26.7496 76.9153 25.2664L76.9152 25.2663M30.894 22.3784L76.9152 25.2663M76.9152 25.2663C75.6972 23.7838 73.9908 22.7622 72.11 22.39L76.9152 25.2663ZM30.2348 96.2359H30.4389L30.5587 96.0706L38.124 85.6292L38.5838 84.9945H37.8001H33.582H33.4126L33.2948 85.1162L23.1788 95.5576L22.5216 96.2359H23.4661H30.2348ZM39.0908 88.3239L38.6309 88.9586H39.4147H63.7438H64.5275L64.0677 88.3239L61.7753 85.1599L61.6556 84.9945H61.4514H41.7072H41.5031L41.3833 85.1598L39.0908 88.3239ZM72.5998 96.0706L72.7195 96.2359H72.9237H79.5654H80.5019L79.8543 95.5593L69.8598 85.1179L69.7417 84.9945H69.5709H65.3587H64.575L65.0348 85.6292L72.5998 96.0706Z"/><path fill="#DD7B51" stroke="#25272B" stroke-width=".8" d="M49.9268 57.318H50.3268V56.918V33.8203V33.4203H49.9268H30.9424H30.5424V33.8203V56.918V57.318H30.9424H49.9268ZM72.0752 57.318H72.4752V56.918V33.8203V33.4203H72.0752H53.0908H52.6908V33.8203V56.918V57.318H53.0908H72.0752ZM29.3604 31.0563H73.6572C74.3099 31.0563 74.8393 31.5856 74.8393 32.2383V58.5C74.8393 59.1527 74.3099 59.682 73.6572 59.682H29.3604C28.7077 59.682 28.1783 59.1527 28.1783 58.5V32.2383C28.1783 31.5856 28.7077 31.0563 29.3604 31.0563Z"/><path fill="#DD7B51" stroke="#25272B" stroke-width=".8" d="M45.1807 24.7281H57.8369C58.4896 24.7281 59.019 25.2575 59.019 25.9102C59.019 26.5628 58.4896 27.0922 57.8369 27.0922H45.1807C44.528 27.0922 43.9986 26.5628 43.9986 25.9102C43.9986 25.2575 44.528 24.7281 45.1807 24.7281Z"/><path fill="#DD7B51" stroke="#25272B" stroke-width=".8" d="M62.983 71.1562C62.983 67.8878 65.6427 65.2281 68.9111 65.2281C72.1795 65.2281 74.8393 67.8878 74.8393 71.1562C74.8393 74.4247 72.1795 77.0844 68.9111 77.0844C65.6427 77.0844 62.983 74.4247 62.983 71.1562ZM65.3471 71.1562C65.3471 73.1218 66.9456 74.7203 68.9111 74.7203C70.8767 74.7203 72.4752 73.1218 72.4752 71.1562C72.4752 69.1907 70.8767 67.5922 68.9111 67.5922C66.9456 67.5922 65.3471 69.1907 65.3471 71.1562Z"/><path fill="#DD7B51" stroke="#25272B" stroke-width=".8" d="M28.1783 71.1562C28.1783 67.8878 30.838 65.2281 34.1064 65.2281C37.3749 65.2281 40.0346 67.8878 40.0346 71.1562C40.0346 74.4247 37.3749 77.0844 34.1064 77.0844C30.8382 77.0844 28.1783 74.4247 28.1783 71.1562ZM30.5424 71.1562C30.5424 73.1218 32.1409 74.7203 34.1064 74.7203C36.072 74.7203 37.6705 73.1218 37.6705 71.1562C37.6705 69.1907 36.072 67.5922 34.1064 67.5922C32.1409 67.5922 30.5424 69.1907 30.5424 71.1562Z"/><path fill="#DD7B51" stroke="#25272B" stroke-width=".8" d="M45.1807 66.8102H57.8369C58.4897 66.8102 59.019 67.3395 59.019 67.9922C59.019 68.6449 58.4896 69.1742 57.8369 69.1742H45.1807C44.528 69.1742 43.9986 68.6449 43.9986 67.9922C43.9986 67.3395 44.528 66.8102 45.1807 66.8102Z"/><path fill="#DD7B51" stroke="#25272B" stroke-width=".8" d="M45.1807 73.1383H57.8369C58.4897 73.1383 59.019 73.6676 59.019 74.3203C59.019 74.973 58.4896 75.5023 57.8369 75.5023H45.1807C44.528 75.5023 43.9986 74.973 43.9986 74.3203C43.9986 73.6676 44.528 73.1383 45.1807 73.1383Z"/></g><defs xmlns="http://www.w3.org/2000/svg"><filter id="filter0_d" width="117" height="117" x="-7" y="0" color-interpolation-filters="sRGB" filterUnits="userSpaceOnUse"><feFlood flood-opacity="0" result="BackgroundImageFix"/><feColorMatrix in="SourceAlpha" values="0 0 0 0 0 0 0 0 0 0 0 0 0 0 0 0 0 0 127 0"/><feOffset/><feGaussianBlur stdDeviation="9"/><feColorMatrix values="0 0 0 0 0.890196 0 0 0 0 0.513726 0 0 0 0 0.305882 0 0 0 0.3 0"/><feBlend in2="BackgroundImageFix" result="effect1_dropShadow"/><feBlend in="SourceGraphic" in2="effect1_dropShadow" result="shape"/></filter></defs>
		</g>
  </symbol>
  <view id="img-train-view" viewBox="0 620 103 117"/>
  <use xlink:href="#img-train" width="103" height="117" x="0" y="620"/>

 <symbol id="img-user" viewBox="0 0 14 16">
		<g id="img-user">
			<path fill="#DD7B51" d="M7.00055 7.82505C8.77948 7.82505 10.2217 6.07337 10.2217 3.91255C10.2217 1.75168 9.74821 0 7.00055 0C4.2529 0 3.7793 1.75168 3.7793 3.91255C3.7793 6.07337 5.22154 7.82505 7.00055 7.82505Z"/><path xmlns="http://www.w3.org/2000/svg" fill="#DD7B51" d="M13.0859 13.9019C13.0877 13.8658 13.0865 13.6517 13.0859 13.9019V13.9019Z"/><path xmlns="http://www.w3.org/2000/svg" fill="#DD7B51" d="M13.0773 13.641C13.0176 9.87679 12.526 8.80419 8.76402 8.12524C8.76402 8.12524 8.23446 8.80003 7.00017 8.80003C5.76589 8.80003 5.23624 8.12524 5.23624 8.12524C1.51533 8.79679 0.993821 9.85348 0.92525 13.5187C0.919627 13.818 0.917021 13.8337 0.916016 13.799C0.916244 13.8641 0.916518 13.9845 0.916518 14.1945C0.916518 14.1945 1.81215 16 7.00017 16C12.1881 16 13.0838 14.1945 13.0838 14.1945C13.0838 14.0596 13.0839 13.9658 13.0841 13.9019C13.0831 13.9234 13.081 13.8818 13.0773 13.641Z"/>
		</g>
  </symbol>
  <view id="img-user-view" viewBox="0 640 14 16"/>
  <use xlink:href="#img-user" width="14" height="16" x="0" y="640"/>
</svg>
