<svg width="17" height="17" viewBox="0 0 17 17" fill="none" xmlns="http://www.w3.org/2000/svg">
<path d="M12.1095 0H4.89055C2.18958 0 0 2.18957 0 4.89054V12.1095C0 14.8104 2.18958 17 4.89055 17H12.1095C14.8104 17 17 14.8104 17 12.1095V4.89054C17 2.18957 14.8104 0 12.1095 0Z" fill="#DD7B51"/>
<path d="M11.0774 2.42847H5.92098C3.99172 2.42847 2.42773 3.99244 2.42773 5.92171V11.0781C2.42773 13.0073 3.99172 14.5713 5.92098 14.5713H11.0774C13.0066 14.5713 14.5706 13.0073 14.5706 11.0781V5.92171C14.5706 3.99244 13.0066 2.42847 11.0774 2.42847Z" stroke="#28282C" stroke-miterlimit="10"/>
<path d="M8.7046 11.4102C10.1986 11.4102 11.4097 10.1991 11.4097 8.70509C11.4097 7.21111 10.1986 6 8.7046 6C7.21062 6 5.99951 7.21111 5.99951 8.70509C5.99951 10.1991 7.21062 11.4102 8.7046 11.4102Z" fill="#DD7B51" stroke="#28282C" stroke-miterlimit="10"/>
<path d="M11.6777 5.5057C12.0244 5.5057 12.3055 5.2246 12.3055 4.87785C12.3055 4.5311 12.0244 4.25 11.6777 4.25C11.3309 4.25 11.0498 4.5311 11.0498 4.87785C11.0498 5.2246 11.3309 5.5057 11.6777 5.5057Z" fill="#27282B"/>
</svg>
