<svg width="27" height="27" fill="none" xmlns="http://www.w3.org/2000/svg"><g clip-path="url(#clip0)" fill="#fff" stroke="#fff"><path d="M6.037 7.942C6.037 3.839 9.376.5 13.48.5s7.442 3.339 7.442 7.442v11.116c0 4.103-3.339 7.442-7.442 7.442s-7.442-3.339-7.442-7.442V7.942zM13.48 25.88a6.83 6.83 0 0 0 6.822-6.822V7.942A6.83 6.83 0 0 0 13.48 1.12a6.83 6.83 0 0 0-6.822 6.822v11.116a6.83 6.83 0 0 0 6.822 6.822z"/><path d="M13.17 6.181a.31.31 0 1 1 .62 0V9.91a.31.31 0 0 1-.62 0V6.181z"/></g><defs><clipPath id="clip0"><path fill="#fff" d="M0 0h27v27H0z"/></clipPath></defs></svg>