<svg width="189" height="37" viewBox="0 0 189 37" fill="none" xmlns="http://www.w3.org/2000/svg">
<g clip-path="url(#clip0_2012_24869)">
<path fill-rule="evenodd" clip-rule="evenodd" d="M52.2691 13.2567H60.996C60.88 14.2517 60.5719 15.1354 60.0617 15.898C59.5517 16.6606 58.8648 17.2566 58.0063 17.6858C57.1427 18.1201 56.1327 18.3372 54.9661 18.3475C54.4762 18.3475 53.9863 18.3172 53.4964 18.2514C53.0066 18.1908 52.5368 18.1049 52.0924 17.9989C51.648 17.8878 51.254 17.7615 50.9057 17.6201L50.0874 21.1655C50.4461 21.332 50.9006 21.4835 51.4459 21.6302C51.9966 21.7766 52.5975 21.8977 53.2641 21.9887C53.9307 22.0845 54.6176 22.13 55.3297 22.1351C56.5367 22.1351 57.673 21.9887 58.7436 21.7008C59.8143 21.4128 60.7941 20.9837 61.6778 20.413C62.5617 19.8473 63.3243 19.1403 63.9706 18.2918C64.612 17.4485 65.112 16.4687 65.4605 15.3575C65.8139 14.2415 65.9909 12.994 65.9959 11.6203C65.9959 10.4791 65.8747 9.3882 65.6222 8.34286C65.3695 7.29733 64.9808 6.33277 64.4605 5.44885C63.9404 4.56519 63.2738 3.79241 62.4707 3.13595C61.6628 2.47936 60.7031 1.96428 59.5921 1.60067C58.481 1.23693 57.2134 1.05012 55.7842 1.04501C55.0419 1.05032 54.3347 1.10576 53.663 1.22194C52.9914 1.33806 52.3703 1.47945 51.8046 1.65618C51.239 1.828 50.7491 2.00977 50.3299 2.19658L51.239 5.62066C51.5873 5.47424 51.9763 5.33777 52.4155 5.21163C52.8601 5.0853 53.3297 4.97933 53.8399 4.89849C54.3448 4.81765 54.8751 4.77216 55.4206 4.77216C56.269 4.77746 57.0266 4.90352 57.6881 5.15095C58.3498 5.39851 58.9154 5.747 59.385 6.18634C59.8547 6.63073 60.2234 7.14579 60.5012 7.7368C60.7738 8.32761 60.9507 8.96391 61.0265 9.65081H52.2691V13.2567ZM68.3317 1.37851V21.8018H72.877V13.2567H73.7556C74.574 13.262 75.2504 13.4435 75.7756 13.7971C76.2962 14.1505 76.7253 14.6305 77.0482 15.2414C77.3771 15.8475 77.6543 16.5394 77.8765 17.3171C78.1093 18.0797 78.3467 18.8424 78.5841 19.6048C78.8215 20.3675 79.114 21.0998 79.4528 21.8018H84.4219C83.9424 20.7816 83.518 19.7311 83.1493 18.6453C82.7759 17.5647 82.4118 16.4738 82.0584 15.3779C81.7805 14.5547 81.4476 13.8172 81.0583 13.1557C80.6644 12.494 80.1743 11.9386 79.5841 11.4789C78.9933 11.0194 78.2658 10.6861 77.3917 10.4689L84.5127 1.37851H78.907L73.3014 9.89312H72.877V1.37851H68.3317ZM85.9093 1.37851V21.8018H90.5156V5.16614H98.2421V1.37851H85.9093ZM113.972 19.0443C113.613 19.2161 113.204 19.3676 112.739 19.4937C112.274 19.6201 111.78 19.716 111.255 19.7868C110.724 19.8575 110.189 19.8928 109.638 19.8928C107.987 19.8827 106.578 19.5494 105.417 18.8828C104.255 18.216 103.366 17.2716 102.75 16.0444C102.134 14.8222 101.826 13.3678 101.82 11.681C101.826 10.3377 102.018 9.14575 102.391 8.10034C102.77 7.06005 103.311 6.17619 104.008 5.45905C104.709 4.73681 105.548 4.1915 106.522 3.81774C107.502 3.44405 108.588 3.25718 109.79 3.25718C110.644 3.26248 111.416 3.34292 112.108 3.49949C112.8 3.65606 113.391 3.85819 113.881 4.10555L114.548 1.95413C114.315 1.828 113.977 1.69657 113.537 1.55518C113.098 1.4187 112.558 1.29767 111.922 1.20158C111.28 1.10065 110.538 1.05012 109.699 1.04501C108.109 1.05032 106.664 1.30762 105.361 1.81778C104.058 2.32782 102.937 3.05511 101.992 3.99951C101.048 4.94398 100.321 6.0752 99.8104 7.3832C99.2958 8.69626 99.0379 10.1608 99.0332 11.7718C99.0432 13.4537 99.2958 14.9384 99.7959 16.2313C100.295 17.5192 100.998 18.5999 101.907 19.4736C102.811 20.3524 103.871 21.014 105.093 21.4634C106.311 21.9078 107.644 22.1351 109.093 22.1351C109.926 22.1298 110.689 22.0845 111.386 21.9937C112.083 21.8977 112.699 21.7766 113.224 21.6302C113.749 21.4835 114.168 21.332 114.487 21.1655L113.972 19.0443ZM128.725 14.9536C128.755 14.8021 128.78 14.6254 128.795 14.4233C128.81 14.2212 128.816 13.984 128.816 13.7113C128.821 13.1657 128.765 12.58 128.649 11.9587C128.532 11.3376 128.341 10.7264 128.068 10.1255C127.8 9.51943 127.432 8.97412 126.972 8.47914C126.507 7.98416 125.926 7.58527 125.235 7.28731C124.543 6.99426 123.715 6.83789 122.755 6.83278C121.685 6.83809 120.725 7.03975 119.876 7.44375C119.028 7.84284 118.311 8.3983 117.715 9.1104C117.119 9.82754 116.665 10.6609 116.352 11.6154C116.038 12.5647 115.881 13.6001 115.877 14.7111C115.882 15.8223 116.043 16.8323 116.366 17.7363C116.695 18.6453 117.169 19.4281 117.791 20.0797C118.412 20.7361 119.169 21.2412 120.058 21.5948C120.947 21.9533 121.957 22.13 123.089 22.1351C123.866 22.1298 124.568 22.0796 125.19 21.9836C125.811 21.8877 126.356 21.7715 126.826 21.6302C127.295 21.4835 127.684 21.3421 127.997 21.1957L127.513 19.2868C127.194 19.4281 126.841 19.5595 126.452 19.6707C126.068 19.7868 125.629 19.8776 125.139 19.9432C124.649 20.009 124.083 20.0443 123.452 20.0443C122.776 20.0443 122.134 19.9483 121.538 19.7563C120.937 19.5644 120.412 19.2614 119.947 18.8523C119.488 18.4433 119.124 17.913 118.856 17.2716C118.583 16.6253 118.442 15.8525 118.422 14.9536H128.725ZM118.452 13.0446C118.503 12.5749 118.619 12.0901 118.796 11.59C118.978 11.0951 119.23 10.6306 119.553 10.2012C119.882 9.76699 120.291 9.4185 120.785 9.15589C121.276 8.88817 121.861 8.74679 122.543 8.74175C123.139 8.74705 123.654 8.84268 124.083 9.02956C124.512 9.21637 124.866 9.46399 125.149 9.77694C125.432 10.085 125.654 10.4336 125.816 10.8073C125.977 11.1861 126.093 11.5699 126.154 11.9587C126.219 12.3426 126.25 12.7063 126.24 13.0446H118.452ZM131.326 27.8016H133.962V19.8321H134.023C134.321 20.3169 134.695 20.731 135.155 21.0745C135.609 21.4179 136.124 21.6806 136.7 21.8623C137.276 22.0443 137.887 22.1351 138.538 22.1351C139.412 22.1351 140.245 21.9734 141.043 21.6452C141.841 21.3169 142.553 20.8271 143.184 20.1705C143.811 19.5191 144.31 18.6959 144.674 17.7111C145.038 16.7263 145.225 15.5747 145.235 14.2566C145.229 13.1456 145.073 12.1356 144.76 11.2316C144.452 10.3225 144.018 9.53973 143.458 8.88313C142.892 8.23178 142.235 7.72665 141.477 7.36795C140.72 7.01455 139.892 6.83789 138.993 6.83278C137.795 6.83809 136.76 7.08525 135.887 7.57008C135.013 8.05996 134.311 8.7519 133.781 9.65081H133.72L133.568 7.13585H131.205C131.236 7.82759 131.266 8.56502 131.291 9.34781C131.311 10.1305 131.326 10.9891 131.326 11.9233V27.8016ZM133.962 13.287C133.962 13.1204 133.983 12.9435 134.018 12.7566C134.054 12.5749 134.099 12.3982 134.144 12.2264C134.311 11.5547 134.599 10.9791 135.003 10.4892C135.402 9.99936 135.877 9.62547 136.427 9.35796C136.978 9.09024 137.563 8.95887 138.175 8.95376C138.882 8.95907 139.503 9.10529 140.048 9.3933C140.589 9.67601 141.043 10.0751 141.412 10.5749C141.786 11.075 142.064 11.6508 142.255 12.3021C142.442 12.9537 142.538 13.6456 142.538 14.3778C142.538 15.504 142.361 16.4939 142.008 17.3423C141.66 18.1908 141.154 18.8473 140.493 19.3221C139.831 19.7968 139.028 20.0392 138.084 20.0443C137.443 20.039 136.851 19.9079 136.306 19.6453C135.76 19.3826 135.296 19.0191 134.912 18.5544C134.528 18.0848 134.251 17.5444 134.084 16.9233C134.039 16.7565 134.008 16.5798 133.988 16.398C133.973 16.2161 133.962 16.0293 133.962 15.8324V13.287ZM147.685 21.8018C147.953 21.8219 148.307 21.8473 148.746 21.8775C149.191 21.9027 149.675 21.9281 150.21 21.9482C150.74 21.9685 151.286 21.9836 151.837 21.9836C152.321 21.9836 152.847 21.9685 153.408 21.9281C153.973 21.8928 154.544 21.8219 155.119 21.7159C155.695 21.6099 156.25 21.4583 156.781 21.2613C157.311 21.0594 157.78 20.8019 158.2 20.4836C158.619 20.1654 158.948 19.7716 159.19 19.3069C159.432 18.8424 159.558 18.2918 159.564 17.6504C159.558 16.9434 159.397 16.3424 159.074 15.8373C158.755 15.3375 158.316 14.9384 157.76 14.6404C157.2 14.3424 156.559 14.1455 155.837 14.0445V13.984C156.397 13.8627 156.912 13.6556 157.372 13.3627C157.831 13.0698 158.2 12.6962 158.473 12.2416C158.751 11.787 158.892 11.2568 158.897 10.6507C158.892 10.0042 158.741 9.46399 158.453 9.02445C158.17 8.58518 157.786 8.23178 157.311 7.95896C156.831 7.6862 156.306 7.48414 155.731 7.34282C155.154 7.20143 154.574 7.10534 153.988 7.05501C153.402 7.00441 152.856 6.97921 152.352 6.98432C151.781 6.98432 151.205 6.99937 150.625 7.02961C150.044 7.06005 149.498 7.1005 148.988 7.15083C148.478 7.20143 148.044 7.25687 147.685 7.31762V21.8018ZM150.261 8.95376C150.458 8.93367 150.66 8.91337 150.862 8.89328C151.064 8.87803 151.281 8.86297 151.518 8.84779C151.751 8.83764 152.024 8.83273 152.321 8.83273C153.655 8.83273 154.644 9.0094 155.291 9.36286C155.942 9.71646 156.266 10.2569 156.26 10.984C156.255 11.4235 156.139 11.7921 155.912 12.0901C155.685 12.3881 155.382 12.6305 154.998 12.8072C154.619 12.989 154.19 13.1204 153.715 13.201C153.246 13.2819 152.761 13.3172 152.261 13.3172H150.261V8.95376ZM150.23 15.0446H152.17C152.801 15.0393 153.402 15.0748 153.963 15.1506C154.518 15.2213 155.018 15.3525 155.447 15.5345C155.877 15.7214 156.215 15.984 156.463 16.3223C156.705 16.6607 156.831 17.0949 156.837 17.6201C156.831 18.0495 156.735 18.413 156.544 18.711C156.357 19.009 156.099 19.2565 155.781 19.4433C155.463 19.6353 155.109 19.7868 154.715 19.8878C154.326 19.9937 153.922 20.0644 153.518 20.1099C153.109 20.1504 152.72 20.1654 152.352 20.1654C152.084 20.1654 151.831 20.1607 151.604 20.1554C151.377 20.1501 151.155 20.1402 150.937 20.1252C150.715 20.1099 150.478 20.0947 150.23 20.0746V15.0446ZM162.044 7.13585V21.8018H165.135C165.65 20.9382 166.175 20.0644 166.701 19.1757C167.226 18.2867 167.741 17.4131 168.246 16.5595C168.756 15.7061 169.246 14.898 169.711 14.1355C169.998 13.6456 170.271 13.1708 170.524 12.7111C170.776 12.2517 171.034 11.7718 171.292 11.2618C171.554 10.7568 171.847 10.1911 172.165 9.55982H172.225C172.195 10.1508 172.17 10.6911 172.145 11.1759C172.125 11.6607 172.105 12.1254 172.089 12.5749C172.074 13.0244 172.064 13.489 172.054 13.9739C172.049 14.4586 172.044 14.9991 172.044 15.5899V21.8018H174.589V7.13585H171.468L166.892 14.7111C166.645 15.1303 166.423 15.5192 166.226 15.8828C166.029 16.2415 165.837 16.5898 165.66 16.9332C165.484 17.2767 165.302 17.6354 165.115 18.004C164.928 18.3777 164.721 18.7817 164.499 19.2261L164.408 19.1958C164.438 18.6757 164.463 18.1858 164.488 17.721C164.509 17.2515 164.529 16.7919 164.544 16.3374C164.559 15.8777 164.569 15.403 164.579 14.9132C164.584 14.4233 164.59 13.8879 164.59 13.3172V7.13585H162.044ZM188.13 19.2868C187.756 19.4635 187.307 19.6201 186.776 19.7614C186.251 19.9028 185.61 19.9737 184.857 19.9836C184.125 19.9836 183.453 19.8575 182.832 19.6048C182.216 19.3524 181.681 18.9888 181.221 18.514C180.761 18.0394 180.408 17.4635 180.151 16.7868C179.898 16.1101 179.771 15.3474 179.767 14.4991C179.767 13.7364 179.877 13.0193 180.105 12.3527C180.327 11.6861 180.655 11.1001 181.095 10.5902C181.534 10.08 182.075 9.68111 182.721 9.3933C183.362 9.10529 184.105 8.95887 184.948 8.95376C185.675 8.95907 186.292 9.0346 186.802 9.17598C187.311 9.3175 187.721 9.47414 188.039 9.65081L188.645 7.62061C188.398 7.48414 188.089 7.358 187.716 7.24182C187.337 7.12059 186.913 7.0247 186.443 6.94897C185.973 6.87324 185.479 6.83278 184.948 6.83278C183.746 6.83809 182.665 7.03471 181.696 7.41855C180.731 7.80239 179.903 8.34777 179.216 9.04985C178.524 9.7467 177.994 10.5749 177.625 11.5244C177.261 12.4739 177.075 13.5142 177.07 14.6506C177.075 15.7768 177.247 16.7969 177.59 17.7111C177.933 18.6302 178.423 19.4129 179.064 20.0746C179.701 20.7361 180.468 21.2412 181.362 21.5948C182.262 21.9533 183.262 22.13 184.372 22.1351C185.029 22.1298 185.635 22.0796 186.185 21.9887C186.736 21.8977 187.211 21.7865 187.62 21.6554C188.029 21.5239 188.347 21.4029 188.585 21.2867L188.13 19.2868Z" fill="white"/>
<path fill-rule="evenodd" clip-rule="evenodd" d="M21.5314 0C32.007 0 40.4995 8.49247 40.4995 18.9682C40.4995 19.0875 40.4982 19.2065 40.4962 19.3253H42.0284V21.9614H8.85959C8.85561 22.0559 8.85362 22.1511 8.85362 22.2466C8.85362 26.0447 11.9326 29.1236 15.7308 29.1236C19.0472 29.1236 21.815 26.7763 22.4639 23.6525H24.6992C24.8411 23.5767 24.994 23.5624 25.121 23.6408L25.14 23.6525H27.0708C27.0262 24.0162 26.9642 24.3745 26.8863 24.7268L29.3952 26.2701C29.667 26.4369 29.8038 26.7934 29.6514 27.1668L28.8805 29.05C28.728 29.4231 28.3799 29.5812 28.0697 29.5101L25.0744 28.8234C24.2514 29.9905 23.2153 30.9963 22.0227 31.7848L22.6537 34.7778C22.7196 35.09 22.5553 35.435 22.1795 35.5808L20.2829 36.3185C19.907 36.4647 19.5528 36.3205 19.391 36.0469L17.8691 33.4728C17.1764 33.604 16.4616 33.6726 15.7308 33.6726C14.9379 33.6726 14.1638 33.5918 13.4163 33.438L11.7907 35.9726C11.6183 36.241 11.2592 36.3713 10.8889 36.2115L9.02061 35.4057C8.65063 35.2456 8.4991 34.8947 8.57602 34.5862L9.29767 31.6902C8.12521 30.8898 7.10938 29.8765 6.30577 28.7063L3.31891 29.3988C3.00815 29.4711 2.66019 29.3137 2.50647 28.9409L1.73124 27.0594C1.57745 26.6867 1.71426 26.3297 1.98483 26.1622L4.54343 24.5794C4.38719 23.8263 4.30469 23.046 4.30469 22.2466C4.30469 22.1513 4.30602 22.0561 4.30801 21.9614H0V19.3253H37.6259C37.7143 16.9697 37.2973 14.6128 36.2779 12.1656C36.0776 11.6239 35.2735 11.2751 34.6139 11.6741L24.3104 17.87C24.3189 17.9358 24.325 18.0021 24.329 18.0692H23.394C23.3058 17.0588 22.4578 16.2659 21.4245 16.2659C20.3912 16.2659 19.5431 17.0588 19.455 18.0692H18.5201H17.2699L7.29858 14.5801C6.57183 14.3237 5.85561 14.8284 5.76973 15.3999C5.594 16.3142 5.48889 17.2024 5.45089 18.0692H2.98461H2.58459C3.05417 8.01128 11.3569 0 21.5311 0H21.5314ZM23.7686 16.5191L32.9742 9.39237C33.5919 8.93101 33.571 8.05485 33.1442 7.66571C30.191 4.74397 26.8877 3.27634 23.0559 2.78819C22.3023 2.66053 21.7393 2.81451 21.6963 3.73577L21.8152 15.3597C22.6149 15.467 23.3118 15.8991 23.7686 16.5191ZM20.3296 15.5469L18.6256 4.29429C18.5121 3.53185 17.7306 3.13501 17.1855 3.32653C13.2134 4.54223 10.3555 6.75572 8.10969 9.89803C7.64011 10.5012 7.50887 11.0701 8.29955 11.5446L18.8115 16.9628C19.1252 16.3238 19.6664 15.8166 20.3296 15.5469Z" fill="white"/>
</g>
<defs>
<clipPath id="clip0_2012_24869">
<rect width="189" height="36.4737" fill="white"/>
</clipPath>
</defs>
</svg>
