<?xml version="1.0" standalone="no"?>
<!DOCTYPE svg PUBLIC "-//W3C//DTD SVG 20010904//EN"
 "http://www.w3.org/TR/2001/REC-SVG-20010904/DTD/svg10.dtd">
<svg version="1.0" xmlns="http://www.w3.org/2000/svg"
 width="300.000000pt" height="300.000000pt" viewBox="0 0 300.000000 300.000000"
 preserveAspectRatio="xMidYMid meet">
<metadata>
Created by potrace 1.11, written by Peter Selinger 2001-2013
</metadata>
<g transform="translate(0.000000,300.000000) scale(0.100000,-0.100000)"
fill="#000000" stroke="none">
<path d="M0 1500 l0 -1500 1500 0 1500 0 0 1500 0 1500 -1500 0 -1500 0 0
-1500z m1815 1046 c200 -52 430 -192 557 -337 168 -194 270 -434 285 -671 l6
-98 44 0 43 0 0 -80 0 -80 -986 0 -987 0 7 -62 c12 -118 86 -234 187 -295 225
-134 510 -35 596 209 l17 46 76 4 c41 1 104 1 139 0 l63 -4 -6 -28 c-5 -27 0
-32 75 -79 44 -28 82 -58 85 -66 8 -21 -46 -154 -67 -166 -12 -6 -45 -3 -101
11 -46 11 -90 20 -98 19 -8 0 -28 -18 -45 -39 -16 -22 -55 -60 -86 -85 l-57
-46 19 -87 c11 -48 17 -96 15 -108 -7 -26 -135 -79 -169 -70 -14 4 -38 34 -67
82 l-45 76 -135 2 -136 1 -49 -77 c-28 -43 -56 -80 -63 -83 -19 -7 -162 54
-169 73 -4 8 3 55 15 103 l22 88 -91 90 -91 90 -94 -21 c-94 -21 -95 -21 -113
-2 -23 25 -64 127 -59 151 2 10 32 37 68 60 103 66 98 58 87 141 l-9 72 -124
0 -124 0 0 80 0 80 1121 0 1121 0 -7 83 c-8 95 -34 217 -65 300 -23 61 -52 84
-92 71 -27 -8 -622 -366 -626 -376 -2 -4 -16 -8 -31 -8 -21 0 -31 7 -42 32
-42 93 -165 97 -206 7 l-18 -38 -65 -1 c-57 0 -102 13 -366 105 -165 58 -309
105 -318 105 -9 0 -28 -11 -41 -24 -19 -19 -25 -38 -30 -105 l-8 -81 -89 0
-90 0 7 53 c50 407 274 729 630 903 177 87 309 115 525 110 127 -3 173 -9 255
-30z"/>
<path d="M1573 2409 c-11 -4 -23 -14 -26 -23 -4 -9 -3 -173 0 -366 6 -319 8
-350 23 -350 9 0 36 -13 58 -30 l41 -30 281 216 c195 150 282 223 286 240 9
35 -15 65 -107 138 -88 69 -207 133 -311 166 -87 28 -219 49 -245 39z"/>
<path d="M1179 2347 c-158 -67 -282 -156 -386 -278 -30 -35 -62 -79 -71 -97
-15 -32 -15 -33 9 -56 13 -13 162 -94 331 -180 291 -148 308 -155 318 -136 6
11 25 30 44 42 l33 23 -53 340 c-29 187 -53 341 -53 342 -1 1 -8 9 -17 17 -23
24 -71 19 -155 -17z"/>
</g>
</svg>
